<svg xmlns="http://www.w3.org/2000/svg" xmlns:xlink="http://www.w3.org/1999/xlink" width="500" zoomAndPan="magnify" viewBox="0 0 375 374.999991" height="500" preserveAspectRatio="xMidYMid meet" version="1.0"><defs><g/><clipPath id="e28fa70275"><path d="M 0 4.222656 L 375 4.222656 L 375 187.222656 L 0 187.222656 Z M 0 4.222656 " clip-rule="nonzero"/></clipPath><clipPath id="e9795bb703"><path d="M 13.609375 13.609375 L 361.609375 13.609375 L 361.609375 187.492188 L 13.609375 187.492188 Z M 13.609375 13.609375 " clip-rule="nonzero"/></clipPath><clipPath id="3c33ff98f3"><path d="M 123.550781 100.554688 L 239 100.554688 L 239 180 L 123.550781 180 Z M 123.550781 100.554688 " clip-rule="nonzero"/></clipPath><clipPath id="8f19a4b8fc"><path d="M 62.324219 130 L 103 130 L 103 180.5625 L 62.324219 180.5625 Z M 62.324219 130 " clip-rule="nonzero"/></clipPath><clipPath id="3e5df6ac57"><path d="M 258.636719 123.796875 L 344.640625 123.796875 L 344.640625 180 L 258.636719 180 Z M 258.636719 123.796875 " clip-rule="nonzero"/></clipPath><clipPath id="a61fbf0f03"><path d="M 188 91 L 220.5 91 L 220.5 123.917969 L 188 123.917969 Z M 188 91 " clip-rule="nonzero"/></clipPath><clipPath id="bf63a807e4"><path d="M 13.386719 187.5 L 361.386719 187.5 L 361.386719 361.382812 L 13.386719 361.382812 Z M 13.386719 187.5 " clip-rule="nonzero"/></clipPath><clipPath id="c711205ba5"><path d="M 0 187.769531 L 375 187.769531 L 375 370.769531 L 0 370.769531 Z M 0 187.769531 " clip-rule="nonzero"/></clipPath><clipPath id="b397c3be1e"><path d="M 75.066406 244.289062 L 217.371094 244.289062 L 217.371094 313.398438 L 75.066406 313.398438 Z M 75.066406 244.289062 " clip-rule="nonzero"/></clipPath><clipPath id="f50e781e69"><path d="M 192.566406 189.855469 L 301.5625 189.855469 L 301.5625 261.402344 L 192.566406 261.402344 Z M 192.566406 189.855469 " clip-rule="nonzero"/></clipPath></defs><g clip-path="url(#e28fa70275)"><path fill="#000000" d="M 187.5 4.222656 C 84.160156 4.222656 0.0273438 88.417969 0.0273438 191.835938 C 0.0273438 192.578125 0.671875 193.222656 1.410156 193.222656 L 373.589844 193.222656 C 374.328125 193.222656 374.972656 192.578125 374.972656 191.835938 C 374.972656 88.417969 290.839844 4.222656 187.5 4.222656 Z M 2.796875 190.449219 C 3.535156 89.15625 86.097656 6.996094 187.5 6.996094 C 288.902344 6.996094 371.464844 89.15625 372.203125 190.449219 Z M 2.796875 190.449219 " fill-opacity="1" fill-rule="nonzero"/></g><g clip-path="url(#e9795bb703)"><path fill="#ffde59" d="M 361.457031 187.492188 C 361.457031 91.378906 283.570312 13.492188 187.460938 13.492188 C 91.355469 13.492188 13.761719 91.378906 13.761719 187.492188 Z M 361.457031 187.492188 " fill-opacity="1" fill-rule="nonzero"/></g><g clip-path="url(#3c33ff98f3)"><path fill="#623d2b" d="M 144.011719 100.679688 C 143.15625 100.738281 142.371094 100.824219 142.269531 100.898438 C 142.167969 100.957031 141.664062 101.074219 141.164062 101.132812 C 139.277344 101.410156 137.433594 102.1875 135.75 103.433594 C 135.21875 103.816406 134.511719 104.328125 134.171875 104.546875 C 133.566406 104.972656 133.347656 105.324219 133.167969 106.234375 C 133.109375 106.496094 132.683594 107.199219 132.195312 107.785156 C 131.398438 108.785156 131.207031 108.914062 129.660156 109.691406 C 128.746094 110.148438 127.890625 110.511719 127.757812 110.511719 C 127.636719 110.511719 127.445312 110.617188 127.34375 110.734375 C 127.238281 110.851562 126.902344 111.027344 126.5625 111.113281 C 126.238281 111.203125 125.722656 111.421875 125.410156 111.628906 C 125.101562 111.816406 124.746094 111.980469 124.628906 111.980469 C 124.527344 111.980469 124.277344 112.097656 124.082031 112.257812 C 123.65625 112.59375 123.625 113.371094 124.023438 114.398438 C 124.171875 114.792969 124.4375 115.511719 124.601562 115.964844 C 124.777344 116.433594 125.011719 116.84375 125.132812 116.902344 C 126.265625 117.386719 129.320312 117.59375 131.238281 117.328125 C 132.0625 117.210938 132.816406 117.109375 132.917969 117.109375 C 133.199219 117.109375 133.125 117.371094 132.785156 117.664062 C 132.609375 117.796875 132.386719 118.003906 132.285156 118.089844 C 132.167969 118.191406 132.019531 118.28125 131.945312 118.28125 C 131.679688 118.28125 130.070312 119.628906 129.878906 120.011719 C 129.761719 120.230469 129.421875 120.582031 129.097656 120.800781 C 128.730469 121.066406 128.523438 121.328125 128.523438 121.519531 C 128.523438 121.796875 128.582031 121.828125 129.039062 121.753906 C 129.496094 121.679688 129.554688 121.710938 129.554688 122.003906 C 129.554688 123.074219 131.058594 124.070312 132.652344 124.054688 C 133.539062 124.054688 133.746094 123.980469 135.457031 123.089844 C 138.125 121.695312 139.984375 121.082031 140.25 121.503906 C 140.398438 121.726562 141.296875 121.679688 141.503906 121.433594 C 141.753906 121.140625 141.84375 121.152344 142.3125 121.59375 C 142.710938 121.960938 142.800781 121.972656 143.671875 121.886719 L 144.613281 121.785156 L 145.457031 122.53125 C 145.914062 122.925781 146.339844 123.265625 146.398438 123.265625 C 146.457031 123.265625 146.648438 123.542969 146.828125 123.878906 C 147.003906 124.230469 147.238281 124.570312 147.328125 124.65625 C 147.433594 124.730469 147.566406 125.039062 147.609375 125.316406 C 147.933594 127.046875 147.960938 127.425781 147.828125 127.792969 C 147.636719 128.292969 147.105469 130.769531 147.003906 131.660156 C 146.855469 132.894531 147.195312 134.066406 148.007812 135.164062 C 148.390625 135.707031 148.863281 136.425781 149.023438 136.761719 C 149.203125 137.085938 149.613281 137.746094 149.953125 138.214844 C 150.824219 139.429688 151.679688 140.941406 151.679688 141.261719 C 151.679688 141.773438 151.089844 142.890625 150.527344 143.460938 C 149.71875 144.265625 148.597656 145.203125 148.316406 145.320312 C 148.183594 145.367188 147.800781 145.613281 147.476562 145.847656 C 147.152344 146.097656 146.296875 146.625 145.558594 147.035156 C 144.835938 147.445312 144.203125 147.8125 144.15625 147.871094 C 144.113281 147.914062 143.890625 148.0625 143.65625 148.179688 C 143.050781 148.488281 142.121094 149.585938 141.664062 150.523438 C 141.324219 151.257812 141.28125 151.476562 141.296875 153.089844 C 141.296875 154.570312 141.339844 154.921875 141.589844 155.289062 C 142.035156 156.007812 143.183594 157.414062 143.300781 157.414062 C 143.375 157.414062 143.421875 157.5 143.421875 157.617188 C 143.421875 157.734375 143.480469 157.851562 143.539062 157.882812 C 143.789062 157.984375 144.671875 159.613281 144.984375 160.519531 C 145.042969 160.667969 145.132812 160.785156 145.191406 160.785156 C 145.234375 160.785156 145.632812 161.09375 146.046875 161.472656 C 147.003906 162.382812 147.519531 162.761719 148.183594 163.070312 C 148.480469 163.21875 148.730469 163.378906 148.730469 163.453125 C 148.730469 163.511719 148.890625 163.570312 149.082031 163.570312 C 149.289062 163.570312 149.703125 163.714844 150.011719 163.90625 C 150.5 164.183594 150.824219 164.226562 152.417969 164.273438 C 153.773438 164.316406 154.335938 164.273438 154.527344 164.125 C 154.820312 163.90625 155.101562 162.46875 154.925781 162.101562 C 154.777344 161.839844 154.277344 160.460938 154.082031 159.832031 C 153.980469 159.449219 153.878906 159.390625 153.40625 159.347656 C 153.109375 159.320312 152.859375 159.246094 152.859375 159.171875 C 152.859375 158.964844 151.679688 158.46875 151.382812 158.542969 C 151.191406 158.601562 151.089844 158.542969 151.089844 158.410156 C 151.089844 158.101562 150.234375 157.132812 149.734375 156.886719 C 149.511719 156.769531 149.320312 156.5625 149.320312 156.417969 C 149.320312 156.007812 148.597656 155.066406 148.289062 155.066406 C 148.109375 155.066406 147.960938 154.9375 147.902344 154.714844 C 147.757812 154.144531 147.890625 153.851562 148.347656 153.734375 C 148.582031 153.660156 148.949219 153.441406 149.171875 153.234375 C 149.6875 152.738281 150.617188 152.285156 151.105469 152.285156 C 151.324219 152.285156 151.53125 152.226562 151.5625 152.167969 C 151.589844 152.109375 152.136719 151.902344 152.785156 151.710938 C 154.097656 151.34375 155.308594 150.921875 157.476562 150.070312 C 158.257812 149.746094 159.082031 149.5 159.277344 149.5 C 159.480469 149.5 159.644531 149.453125 159.644531 149.382812 C 159.644531 149.324219 160.042969 149.089844 160.542969 148.855469 C 161.03125 148.621094 161.472656 148.339844 161.515625 148.238281 C 161.621094 147.972656 162.003906 147.972656 162.003906 148.238281 C 162.003906 148.546875 161.710938 149.351562 161.191406 150.453125 C 160.925781 151.007812 160.660156 151.636719 160.601562 151.84375 C 160.542969 152.035156 160.394531 152.285156 160.292969 152.402344 C 160.175781 152.503906 160.085938 152.707031 160.085938 152.855469 C 160.085938 152.988281 160.027344 153.164062 159.953125 153.234375 C 159.894531 153.324219 159.585938 153.953125 159.289062 154.644531 C 158.832031 155.726562 158.757812 156.066406 158.757812 157.015625 C 158.757812 157.898438 158.832031 158.25 159.082031 158.6875 C 159.261719 158.996094 159.480469 159.289062 159.570312 159.347656 C 159.660156 159.40625 159.925781 159.742188 160.160156 160.109375 C 160.382812 160.460938 160.707031 160.785156 160.882812 160.828125 C 161.058594 160.871094 161.589844 161.0625 162.078125 161.269531 C 162.726562 161.53125 163.375 161.664062 164.480469 161.738281 C 165.308594 161.796875 165.984375 161.898438 165.984375 161.957031 C 165.984375 162.015625 166.398438 162.101562 166.914062 162.148438 C 167.417969 162.175781 168.480469 162.351562 169.289062 162.527344 C 170.085938 162.703125 171.25 162.878906 171.871094 162.910156 C 172.492188 162.9375 173.183594 163.027344 173.40625 163.113281 C 173.640625 163.203125 173.980469 163.277344 174.1875 163.277344 C 174.378906 163.277344 174.539062 163.335938 174.539062 163.421875 C 174.539062 163.511719 175.21875 163.570312 176.28125 163.570312 L 178.007812 163.554688 L 178.273438 162.996094 C 178.613281 162.265625 178.597656 161.121094 178.214844 160.125 C 177.859375 159.171875 177.121094 158.292969 176.679688 158.292969 C 176.515625 158.292969 176.207031 158.203125 176 158.085938 C 175.78125 157.984375 175.425781 157.898438 175.191406 157.882812 C 174.96875 157.882812 174.746094 157.808594 174.71875 157.722656 C 174.644531 157.5 173.996094 157.515625 173.890625 157.734375 C 173.816406 157.882812 173.789062 157.882812 173.714844 157.734375 C 173.613281 157.5 173.257812 157.5 173.183594 157.734375 C 173.140625 157.867188 173.050781 157.851562 172.859375 157.675781 C 172.535156 157.339844 171.503906 157.074219 171.015625 157.191406 C 170.382812 157.339844 169.820312 157.589844 169.820312 157.722656 C 169.820312 157.792969 169.554688 157.851562 169.230469 157.851562 C 168.90625 157.851562 168.640625 157.792969 168.640625 157.734375 C 168.640625 157.664062 168.273438 157.5 167.828125 157.355469 C 167.386719 157.222656 167.019531 157.046875 167.019531 156.972656 C 167.019531 156.886719 167.695312 155.699219 168.539062 154.304688 C 169.378906 152.914062 170.261719 151.417969 170.484375 150.992188 C 170.722656 150.554688 171.105469 150.039062 171.339844 149.851562 C 171.753906 149.511719 171.828125 149.5 174.320312 149.5 C 175.722656 149.5 176.902344 149.441406 176.929688 149.367188 C 177.035156 149.074219 183.066406 148.046875 184.6875 148.03125 C 185.191406 148.03125 185.601562 147.972656 185.601562 147.886719 C 185.601562 147.796875 186.03125 147.738281 186.605469 147.738281 C 187.238281 147.738281 188.007812 147.609375 188.773438 147.375 C 189.421875 147.167969 190.117188 147.007812 190.324219 147.007812 C 190.527344 147.007812 190.882812 146.90625 191.105469 146.789062 C 191.339844 146.671875 192.035156 146.496094 192.652344 146.40625 C 193.273438 146.316406 194.15625 146.199219 194.601562 146.128906 C 195.042969 146.054688 195.660156 145.996094 195.972656 145.996094 L 196.515625 145.980469 L 196.515625 146.714844 C 196.515625 147.710938 197.960938 151.285156 198.671875 152.0625 C 198.832031 152.238281 199.171875 152.796875 199.421875 153.308594 C 199.6875 153.835938 200.335938 154.714844 200.867188 155.273438 C 201.398438 155.832031 201.828125 156.34375 201.828125 156.402344 C 201.828125 156.476562 201.914062 156.535156 202.019531 156.535156 C 202.195312 156.535156 203.300781 157.472656 203.300781 157.632812 C 203.300781 157.839844 204.246094 158.878906 204.4375 158.878906 C 204.539062 158.878906 204.628906 158.953125 204.628906 159.039062 C 204.628906 159.128906 204.910156 159.449219 205.25 159.742188 C 205.585938 160.035156 205.984375 160.375 206.117188 160.519531 C 206.25 160.652344 206.503906 160.796875 206.664062 160.84375 C 206.945312 160.929688 209.054688 162.9375 209.511719 163.554688 C 209.644531 163.730469 209.835938 164.140625 209.953125 164.492188 C 210.058594 164.828125 210.191406 165.136719 210.234375 165.179688 C 210.277344 165.226562 210.441406 165.636719 210.574219 166.105469 C 210.839844 166.941406 210.808594 167.714844 210.515625 167.890625 C 210.441406 167.949219 210.382812 168.171875 210.382812 168.421875 C 210.382812 168.65625 210.320312 168.84375 210.234375 168.84375 C 210.160156 168.84375 210.085938 168.917969 210.085938 169.007812 C 210.085938 169.183594 209.203125 170.515625 209.023438 170.574219 C 208.964844 170.605469 208.90625 170.675781 208.90625 170.75 C 208.90625 170.910156 206.046875 173.769531 205.574219 174.078125 C 205.292969 174.253906 204.761719 174.339844 203.582031 174.386719 C 202.695312 174.429688 201.972656 174.503906 201.972656 174.5625 C 201.972656 174.632812 201.722656 174.722656 201.414062 174.78125 C 201.015625 174.839844 200.601562 175.101562 199.9375 175.71875 C 199.140625 176.453125 199.023438 176.628906 199.023438 177.097656 C 199.023438 177.460938 198.949219 177.640625 198.816406 177.640625 C 198.566406 177.640625 197.84375 178.460938 197.84375 178.753906 C 197.84375 178.871094 197.960938 179.015625 198.109375 179.058594 C 198.242188 179.117188 198.449219 179.28125 198.550781 179.414062 C 198.65625 179.558594 199.023438 179.71875 199.378906 179.765625 C 201.28125 180.058594 208.714844 179.660156 209.496094 179.234375 C 210.320312 178.78125 210.574219 178.429688 210.5 177.816406 C 210.425781 177.316406 210.484375 177.167969 210.914062 176.699219 C 211.175781 176.40625 211.457031 176.171875 211.53125 176.171875 C 211.621094 176.171875 211.722656 175.996094 211.769531 175.792969 C 211.828125 175.585938 212.625 174.664062 213.550781 173.738281 C 214.480469 172.800781 215.25 171.964844 215.25 171.878906 C 215.25 171.789062 215.527344 171.4375 215.882812 171.117188 C 216.222656 170.792969 216.648438 170.222656 216.828125 169.839844 C 217.019531 169.445312 217.226562 169.136719 217.3125 169.136719 C 217.386719 169.136719 217.460938 169.035156 217.460938 168.917969 C 217.460938 168.609375 218.347656 166.910156 218.671875 166.589844 C 218.9375 166.351562 218.949219 166.164062 218.890625 164.769531 L 218.816406 163.203125 L 218.140625 162.570312 C 217.769531 162.21875 217.460938 161.882812 217.460938 161.796875 C 217.460938 161.722656 217.195312 161.386719 216.871094 161.0625 C 216.546875 160.726562 216.28125 160.386719 216.28125 160.316406 C 216.28125 160.242188 216.058594 159.976562 215.792969 159.714844 C 215.261719 159.214844 214.660156 157.957031 214.660156 157.355469 C 214.660156 157.148438 214.527344 156.871094 214.378906 156.722656 C 214.214844 156.578125 213.964844 156.066406 213.804688 155.582031 C 213.550781 154.820312 213.539062 154.496094 213.640625 153.089844 C 213.757812 151.519531 214.070312 150.363281 214.464844 149.96875 C 214.570312 149.863281 214.660156 149.675781 214.660156 149.570312 C 214.660156 149.382812 215.175781 148.503906 215.542969 148.078125 C 215.617188 147.972656 215.691406 147.828125 215.691406 147.738281 C 215.691406 147.652344 215.792969 147.476562 215.914062 147.359375 C 216.03125 147.226562 216.132812 146.976562 216.132812 146.789062 C 216.132812 146.597656 216.339844 146.011719 216.574219 145.46875 C 216.828125 144.925781 217.019531 144.398438 217.019531 144.28125 C 217.019531 144.164062 217.121094 144.03125 217.238281 143.988281 C 217.359375 143.929688 217.460938 143.8125 217.460938 143.695312 C 217.460938 143.578125 217.625 143.242188 217.816406 142.933594 C 217.992188 142.640625 218.199219 142.242188 218.257812 142.066406 C 218.316406 141.878906 218.464844 141.644531 218.566406 141.527344 C 218.949219 141.144531 219.113281 138.285156 218.921875 135.503906 C 218.832031 134.125 218.699219 132.964844 218.625 132.921875 C 218.550781 132.878906 218.449219 132.511719 218.390625 132.101562 C 218.316406 131.457031 218.347656 131.308594 218.625 131.089844 C 218.789062 130.945312 218.9375 130.738281 218.9375 130.652344 C 218.9375 130.546875 219.15625 130.300781 219.4375 130.078125 C 219.71875 129.859375 220.261719 129.390625 220.660156 129.039062 C 221.042969 128.6875 221.457031 128.394531 221.5625 128.394531 C 221.648438 128.394531 221.738281 128.335938 221.738281 128.261719 C 221.738281 128.144531 223.226562 126.898438 224.039062 126.34375 C 224.214844 126.226562 224.644531 125.753906 224.996094 125.316406 C 225.707031 124.421875 226.117188 124.011719 227.476562 122.824219 C 227.992188 122.382812 228.683594 121.753906 229.023438 121.417969 C 229.378906 121.082031 229.761719 120.757812 229.878906 120.683594 C 230.011719 120.609375 230.320312 120.304688 230.558594 119.996094 C 231.265625 119.117188 233.050781 117.59375 233.804688 117.242188 C 234.1875 117.050781 234.585938 116.816406 234.6875 116.710938 C 234.792969 116.609375 234.984375 116.523438 235.101562 116.523438 C 235.308594 116.523438 236.605469 115.863281 237.886719 115.113281 C 238.539062 114.75 238.996094 114.148438 238.996094 113.664062 C 238.996094 113.519531 238.847656 113.445312 238.523438 113.445312 C 238.257812 113.445312 237.667969 113.3125 237.210938 113.164062 C 236.371094 112.886719 235.425781 112.929688 234.644531 113.28125 C 234.480469 113.355469 233.921875 113.503906 233.390625 113.605469 C 232.445312 113.78125 230.71875 114.46875 230.292969 114.835938 C 230.175781 114.9375 229.851562 115.085938 229.597656 115.171875 C 229.082031 115.351562 228.125 116.007812 227.84375 116.375 C 227.742188 116.492188 227.296875 116.976562 226.839844 117.445312 C 226.382812 117.929688 226.015625 118.398438 226.015625 118.515625 C 226.015625 118.632812 225.925781 118.71875 225.824219 118.71875 C 225.71875 118.71875 225.394531 118.957031 225.117188 119.25 C 224.644531 119.730469 223.007812 120.917969 222.785156 120.917969 C 222.652344 120.917969 222.136719 121.503906 221.828125 121.972656 C 221.679688 122.207031 221.472656 122.382812 221.371094 122.382812 C 221.25 122.382812 220.941406 122.605469 220.660156 122.855469 C 219.996094 123.46875 219.746094 123.644531 218.980469 123.996094 C 218.050781 124.4375 215.394531 125.167969 214.730469 125.167969 C 213.65625 125.15625 211.664062 124.613281 209.863281 123.851562 C 206.089844 122.207031 202.09375 121.199219 197.992188 120.800781 C 195.660156 120.582031 189.1875 120.609375 185.972656 120.859375 C 182.429688 121.140625 181.324219 121.066406 180.058594 120.480469 C 178.90625 119.953125 177.726562 119.601562 177.136719 119.601562 C 176.648438 119.601562 174.46875 118.824219 174.097656 118.515625 C 173.417969 117.957031 172.636719 117.664062 171.53125 117.546875 C 169.660156 117.34375 169.054688 117.195312 168.417969 116.769531 C 168.035156 116.523438 167.492188 116.332031 166.828125 116.242188 C 166.148438 116.15625 165.527344 115.9375 164.910156 115.585938 C 163.789062 114.96875 162.121094 113.34375 161.53125 112.316406 C 161.117188 111.582031 160.675781 111.097656 158.289062 108.667969 L 157.253906 107.609375 L 157.917969 107.15625 C 158.390625 106.835938 158.757812 106.703125 159.171875 106.703125 C 160.070312 106.703125 160.234375 106.601562 160.234375 105.984375 C 160.234375 105.691406 160.175781 105.382812 160.101562 105.296875 C 159.953125 105.132812 159.644531 103.59375 159.644531 102.964844 C 159.644531 102.703125 159.527344 102.394531 159.378906 102.261719 C 159.097656 101.996094 157.875 101.71875 157.046875 101.71875 C 156.738281 101.71875 156.488281 101.617188 156.371094 101.457031 C 156 100.941406 155.558594 100.8125 154.320312 100.898438 C 153.671875 100.941406 153.023438 101.046875 152.859375 101.132812 C 152.460938 101.339844 152.136719 101.324219 151.089844 100.988281 C 149.984375 100.636719 149.171875 100.621094 148.582031 100.914062 C 148.199219 101.117188 148.082031 101.117188 147.742188 100.929688 C 147.179688 100.648438 145.867188 100.5625 144.011719 100.679688 Z M 172.785156 126.589844 C 172.667969 126.8125 172.636719 126.8125 172.625 126.621094 C 172.625 126.371094 172.769531 126.152344 172.890625 126.253906 C 172.917969 126.296875 172.875 126.445312 172.785156 126.589844 Z M 172.785156 126.589844 " fill-opacity="1" fill-rule="nonzero"/></g><g clip-path="url(#8f19a4b8fc)"><path fill="#623d2b" d="M 98.308594 171.851562 C 98.308594 171.851562 99.480469 163.234375 92.746094 155.035156 C 86.007812 146.835938 80.132812 150.886719 80.132812 150.886719 C 80.132812 150.886719 77.78125 147.550781 78.488281 145.722656 C 79.191406 143.898438 82.089844 141.195312 82.484375 138.019531 C 82.875 134.84375 84.675781 130.636719 82.953125 130.554688 C 81.230469 130.476562 78.019531 140.5625 78.019531 140.5625 C 78.019531 140.5625 84.050781 123.566406 76.84375 132.9375 C 74.078125 136.535156 73.160156 141.992188 73.160156 141.992188 C 73.160156 141.992188 70.574219 142.625 70.261719 143.339844 C 69.949219 144.054688 66.582031 145.089844 64.621094 148.027344 C 62.664062 150.964844 62.351562 151.917969 62.976562 153.109375 C 63.605469 154.300781 66.03125 157.082031 67.835938 156.445312 L 68.695312 157.636719 C 68.695312 157.636719 66.660156 165.261719 73.789062 171.136719 C 73.789062 171.136719 74.804688 174.3125 74.335938 175.585938 C 73.867188 176.855469 72.222656 177.730469 72.222656 178.523438 C 72.222656 179.316406 74.023438 180.109375 75.824219 179.714844 C 77.625 179.316406 76.765625 179.820312 76.765625 179.820312 C 76.765625 179.820312 82.328125 179.871094 83.03125 179.476562 C 83.734375 179.078125 83.734375 177.886719 83.734375 177.886719 C 83.734375 177.886719 84.910156 179.394531 85.304688 179.238281 C 85.695312 179.078125 91.882812 180.566406 92.511719 179.820312 C 93.136719 179.078125 94.625 179.476562 94.625 179.476562 C 94.625 179.476562 96.582031 176.933594 97.210938 175.664062 C 97.835938 174.394531 98.167969 177.492188 100.734375 175.902344 C 103.300781 174.3125 103.554688 168.515625 98.308594 171.851562 " fill-opacity="1" fill-rule="nonzero"/></g><g clip-path="url(#3e5df6ac57)"><path fill="#623d2b" d="M 262.339844 139.386719 C 262.226562 139.15625 262.140625 138.496094 261.921875 138.273438 C 261.34375 138.058594 260.859375 137.648438 260.261719 137.460938 C 259.835938 137.320312 259.246094 137.167969 258.988281 136.753906 C 258.640625 136.1875 258.917969 135.507812 259.410156 135.316406 C 259.378906 135.292969 259.351562 135.261719 259.324219 135.21875 C 258.980469 134.59375 259.082031 133.425781 259.96875 133.382812 C 260.015625 133.378906 260.050781 133.386719 260.085938 133.398438 C 260.121094 133.386719 260.15625 133.378906 260.203125 133.382812 C 260.445312 133.394531 260.527344 132.980469 260.652344 132.804688 C 260.820312 132.574219 261.035156 132.511719 261.304688 132.480469 C 261.695312 132.429688 262.242188 132.515625 262.59375 132.78125 C 262.617188 132.773438 262.644531 132.765625 262.671875 132.765625 C 263.589844 132.695312 264.703125 133.261719 265.042969 134.140625 C 265.058594 134.175781 265.0625 134.210938 265.0625 134.242188 C 265.496094 135.050781 266.214844 135.863281 266.75 136.582031 C 267.4375 137.503906 268.125 138.402344 268.707031 139.398438 C 269.28125 140.382812 269.6875 141.457031 270.183594 142.476562 C 270.355469 142.828125 270.5625 143.160156 270.777344 143.484375 C 271.085938 143.207031 271.449219 142.25 271.554688 142.039062 C 271.796875 141.570312 272.066406 140.9375 272.554688 140.675781 C 272.574219 140.664062 272.589844 140.65625 272.609375 140.652344 C 272.941406 139.859375 273.644531 139.28125 274.285156 138.734375 C 274.75 138.335938 275.125 137.824219 275.53125 137.371094 C 275.984375 136.867188 276.519531 136.484375 276.929688 135.933594 C 277.835938 134.714844 277.976562 133.503906 277.703125 132.042969 C 277.59375 131.449219 277.449219 130.800781 277.203125 130.246094 C 277.011719 129.820312 276.746094 129.453125 276.613281 129 C 276.386719 128.238281 277.011719 127.367188 277.4375 126.804688 C 278.40625 125.523438 279.84375 125.402344 281.109375 126.082031 C 281.148438 126.039062 281.199219 126.003906 281.269531 125.984375 C 282.550781 125.691406 283.59375 125.4375 284.894531 125.75 C 285.007812 125.777344 285.117188 125.808594 285.226562 125.839844 C 285.246094 125.820312 285.265625 125.800781 285.289062 125.785156 C 285.792969 125.453125 286.480469 124.707031 286.621094 124.113281 C 286.667969 123.902344 286.972656 123.808594 287.117188 123.980469 C 287.738281 124.703125 287.316406 125.816406 287.285156 126.660156 C 287.285156 126.664062 287.28125 126.664062 287.28125 126.667969 C 287.683594 126.882812 288.066406 127.121094 288.429688 127.382812 C 288.925781 126.628906 289.949219 125.980469 290.59375 125.46875 C 291.417969 124.8125 292.257812 124.445312 292.671875 125.609375 C 293.0625 126.695312 292.523438 128.152344 292.070312 129.136719 C 291.976562 129.335938 291.875 129.523438 291.761719 129.699219 C 291.808594 129.746094 291.835938 129.8125 291.835938 129.898438 C 291.835938 131.429688 291.835938 132.960938 291.855469 134.488281 C 291.875 135.863281 291.191406 136.960938 290.808594 138.234375 C 290.636719 138.804688 290.363281 139.351562 290.144531 139.902344 C 289.855469 140.632812 289.84375 141.40625 289.882812 142.179688 C 289.898438 142.472656 289.941406 142.757812 290 143.042969 C 290.023438 143.074219 290.042969 143.117188 290.050781 143.167969 C 290.152344 143.738281 291.097656 144.109375 291.558594 144.351562 C 292.179688 144.675781 292.796875 144.964844 293.378906 145.359375 C 294.960938 146.441406 296.648438 147.3125 298.277344 148.320312 C 301.308594 150.199219 304.445312 152.433594 306.59375 155.320312 C 308.777344 158.257812 309.921875 161.746094 311.164062 165.148438 C 311.878906 167.113281 312.632812 168.855469 314.066406 170.40625 C 314.660156 171.046875 315.382812 171.535156 316.152344 171.933594 C 316.773438 172.253906 317.625 172.578125 318.417969 172.722656 C 318.464844 172.671875 318.535156 172.644531 318.632812 172.648438 C 322.390625 172.925781 326.054688 172.695312 329.558594 171.207031 C 331.121094 170.542969 332.675781 169.96875 334.175781 169.160156 C 334.824219 168.808594 335.449219 168.496094 336.144531 168.242188 C 337.023438 167.925781 337.730469 167.289062 338.566406 166.886719 C 340.207031 166.097656 344.375 164.832031 344.753906 167.722656 C 344.886719 168.722656 344.046875 169.757812 343.390625 170.398438 C 342.390625 171.375 340.917969 171.691406 339.628906 172.078125 C 339.53125 172.109375 339.449219 172.089844 339.386719 172.042969 C 338.269531 172.21875 337.175781 173.128906 336.207031 173.65625 C 334.945312 174.339844 333.667969 175.011719 332.363281 175.617188 C 329.890625 176.765625 327.128906 177.257812 324.433594 177.582031 C 321.675781 177.917969 318.71875 178.140625 315.957031 177.738281 C 314.75 177.558594 313.640625 177.207031 312.496094 176.804688 C 311.828125 176.570312 311.140625 176.304688 310.632812 175.816406 C 310 176.25 309.050781 176.273438 308.363281 176.59375 C 308.558594 177.296875 308.59375 178.003906 308.1875 178.726562 C 307.652344 179.683594 306.398438 179.828125 305.421875 179.84375 C 303.859375 179.867188 302.265625 179.625 300.699219 179.578125 C 300.046875 179.558594 299.421875 179.640625 298.8125 179.675781 C 298.730469 179.753906 298.609375 179.777344 298.488281 179.6875 C 298.09375 179.691406 297.703125 179.664062 297.3125 179.558594 C 297.210938 179.589844 297.097656 179.570312 297.019531 179.464844 C 296.878906 179.414062 296.738281 179.351562 296.597656 179.277344 C 296.445312 179.191406 296.3125 179.09375 296.195312 178.984375 C 296.132812 179.039062 296.042969 179.0625 295.9375 179.023438 C 294.808594 178.597656 293.511719 179.332031 292.347656 179.332031 C 291.226562 179.332031 290.664062 178.335938 290.6875 177.308594 C 290.714844 176.382812 291.417969 175.976562 292.332031 175.816406 C 292.277344 175.796875 292.222656 175.777344 292.171875 175.757812 C 291.550781 175.546875 290.925781 175.453125 290.328125 175.152344 C 289.605469 174.796875 289.097656 174.128906 288.601562 173.523438 C 287.738281 172.480469 286.875 171.199219 286.878906 169.804688 C 286.878906 169.121094 287.121094 168.417969 287.6875 168.144531 C 286.605469 167.625 285.632812 167.039062 284.671875 166.277344 C 283.792969 165.574219 282.832031 164.917969 282.1875 163.992188 C 281.78125 165.023438 281.457031 166.140625 280.828125 167.046875 C 280.414062 167.652344 280.007812 168.265625 279.601562 168.875 C 278.632812 170.328125 277.648438 171.777344 276.75 173.277344 C 276.113281 174.34375 276.425781 176.378906 275.171875 177.019531 C 275.527344 177.664062 275.65625 178.433594 275.382812 179.136719 C 275.070312 179.933594 274.101562 179.925781 273.535156 179.449219 C 273.523438 179.464844 273.515625 179.484375 273.503906 179.503906 C 273.285156 179.839844 272.847656 179.984375 272.46875 180 C 271.898438 180.023438 271.421875 179.675781 271.15625 179.207031 C 271.0625 179.300781 270.964844 179.390625 270.851562 179.464844 C 270.195312 179.90625 269.644531 179.3125 269.40625 178.738281 C 268.945312 177.609375 269.65625 176.734375 270.601562 176.269531 C 270.941406 175.605469 271.011719 174.878906 271.242188 174.167969 C 271.535156 173.257812 271.835938 172.351562 272.1875 171.464844 C 272.644531 170.308594 272.960938 169.167969 273.21875 167.960938 C 273.449219 166.890625 273.675781 165.816406 273.914062 164.75 C 274.054688 164.128906 274.125 163.328125 274.453125 162.769531 C 274.472656 162.738281 274.496094 162.714844 274.519531 162.691406 C 274.761719 161.679688 274.828125 160.621094 274.648438 159.59375 C 274.449219 158.46875 273.769531 157.449219 273.421875 156.363281 C 272.855469 156.542969 272.035156 156.472656 271.628906 156.378906 C 269.300781 155.84375 268.433594 153.707031 267.539062 151.738281 C 267.042969 150.652344 266.296875 149.71875 265.78125 148.644531 C 265.25 147.542969 265.09375 146.179688 264.890625 144.984375 C 264.761719 144.222656 264.617188 143.5625 264.238281 142.875 C 263.917969 142.296875 263.515625 141.777344 263.207031 141.191406 C 262.894531 140.601562 262.632812 139.984375 262.339844 139.386719 " fill-opacity="1" fill-rule="nonzero"/></g><g clip-path="url(#a61fbf0f03)"><path fill="#623d2b" d="M 200.304688 121.023438 L 197.636719 121.285156 L 196.910156 120.21875 L 201.046875 115.222656 C 201.4375 115.402344 201.804688 115.566406 202.148438 115.726562 Z M 194.148438 94.511719 C 194.148438 95.324219 192.929688 95.324219 192.929688 94.511719 C 192.929688 93.699219 194.148438 93.699219 194.148438 94.511719 Z M 220.507812 119.585938 L 218.894531 118.871094 C 218.832031 118.84375 212.777344 116.089844 209.066406 109.40625 C 205.699219 103.339844 200.171875 103.886719 198.507812 98.722656 C 197.589844 95.882812 198.171875 95.433594 200.9375 93.300781 C 200.070312 92.808594 199.09375 92.390625 198.050781 92.6875 C 196.007812 90.242188 192.996094 90.898438 191.105469 92.933594 C 188.472656 95.777344 187.480469 103.664062 190.9375 108.816406 C 193.214844 112.210938 196.050781 112.988281 200.445312 114.953125 L 196.3125 119.949219 L 192.398438 122.164062 C 192.117188 122.328125 192.226562 122.765625 192.554688 122.765625 C 192.6875 122.765625 196.300781 120.6875 196.417969 120.617188 C 198.234375 123.300781 198.277344 123.554688 198.628906 123.316406 C 198.964844 123.085938 198.660156 122.792969 198.042969 121.886719 L 200.433594 121.648438 C 202.734375 123.597656 202.867188 123.859375 203.140625 123.53125 C 203.421875 123.199219 203.136719 123.105469 200.910156 121.214844 L 202.730469 115.992188 C 205.164062 117.105469 206.976562 117.960938 208.207031 118.699219 C 208.199219 118.253906 208.21875 117.199219 207.890625 115.542969 C 209.507812 116.785156 213.394531 119.15625 218.746094 119.480469 L 220.507812 119.585938 " fill-opacity="1" fill-rule="nonzero"/></g><g clip-path="url(#bf63a807e4)"><path fill="#a5c1d8" d="M 13.539062 187.5 C 13.539062 283.613281 91.425781 361.5 187.535156 361.5 C 283.640625 361.5 361.234375 283.613281 361.234375 187.5 Z M 13.539062 187.5 " fill-opacity="1" fill-rule="nonzero"/></g><g clip-path="url(#c711205ba5)"><path fill="#000000" d="M 187.5 370.769531 C 290.839844 370.769531 374.972656 286.574219 374.972656 183.15625 C 374.972656 182.417969 374.328125 181.769531 373.589844 181.769531 L 1.410156 181.769531 C 0.671875 181.769531 0.0273438 182.417969 0.0273438 183.15625 C 0.0273438 286.574219 84.160156 370.769531 187.5 370.769531 Z M 372.203125 184.542969 C 371.464844 285.835938 288.902344 367.996094 187.5 367.996094 C 86.097656 367.996094 3.535156 285.835938 2.796875 184.542969 Z M 372.203125 184.542969 " fill-opacity="1" fill-rule="nonzero"/></g><g clip-path="url(#b397c3be1e)"><path fill="#000000" d="M 190.066406 295.621094 C 184.6875 296.628906 176.539062 296.878906 168.269531 296.285156 C 165.148438 296.0625 162.296875 295.515625 159.726562 294.65625 C 164.378906 292.667969 168.246094 292.316406 172.316406 291.945312 C 175.707031 291.636719 179.21875 291.316406 183.148438 289.957031 C 187.925781 288.304688 191.289062 284.144531 194.257812 280.472656 C 195.425781 279.027344 196.53125 277.660156 197.628906 276.566406 C 200.222656 273.976562 203.460938 272.597656 204.40625 273.183594 C 204.832031 273.449219 204.808594 274.472656 204.339844 275.859375 C 201.679688 283.726562 194.929688 293.863281 194.859375 293.964844 C 194.839844 293.996094 194.824219 294.027344 194.808594 294.058594 C 193.054688 294.789062 191.421875 295.367188 190.066406 295.621094 Z M 151.949219 290.425781 C 153.585938 289.878906 157.847656 288.503906 160.742188 287.976562 L 160.886719 287.949219 C 164.800781 287.238281 172.089844 285.914062 177.433594 279.671875 C 185.300781 270.488281 188.453125 268.761719 189.710938 268.929688 C 189.917969 268.960938 190.191406 269.054688 190.429688 269.5625 C 190.632812 269.988281 190.980469 272.015625 186.933594 280.035156 C 184.703125 284.457031 182.238281 288.511719 182.214844 288.550781 C 182.207031 288.5625 182.199219 288.574219 182.195312 288.585938 C 178.628906 289.761719 175.484375 290.050781 172.167969 290.351562 C 167.824219 290.746094 163.328125 291.15625 157.890625 293.726562 C 157.808594 293.765625 157.738281 293.816406 157.675781 293.878906 C 155.546875 292.96875 153.636719 291.816406 151.949219 290.425781 Z M 149.128906 287.628906 C 148.121094 286.429688 147.351562 285.238281 146.769531 284.171875 C 147.191406 284.1875 147.613281 284.199219 148.03125 284.199219 C 152.640625 284.199219 156.910156 283.070312 161.035156 280.757812 C 164.835938 278.632812 167.785156 275.917969 170.402344 273.304688 C 173.804688 269.90625 175.304688 270.054688 175.683594 270.183594 C 176.160156 270.34375 176.335938 270.902344 176.398438 271.339844 C 176.597656 272.746094 173.535156 278.78125 171.300781 282.617188 C 171.261719 282.683594 171.234375 282.75 171.21875 282.816406 C 167.28125 285.160156 163.175781 285.910156 160.601562 286.375 L 160.457031 286.402344 C 156.703125 287.085938 150.992188 289.058594 150.75 289.140625 C 150.695312 289.160156 150.644531 289.183594 150.597656 289.210938 C 150.085938 288.710938 149.59375 288.183594 149.128906 287.628906 Z M 216.828125 288.3125 C 214.460938 284.816406 207.75 288.007812 200.648438 291.390625 C 199.585938 291.894531 198.515625 292.40625 197.457031 292.890625 C 199.585938 289.511719 203.816406 282.40625 205.859375 276.371094 C 206.820312 273.519531 206.058594 272.328125 205.253906 271.824219 C 203.265625 270.59375 199.238281 272.695312 196.496094 275.4375 C 195.339844 276.589844 194.207031 277.988281 193.011719 279.46875 C 190.648438 282.390625 188.019531 285.640625 184.691406 287.507812 C 185.632812 285.882812 187.035156 283.390625 188.359375 280.761719 C 192.589844 272.382812 192.394531 269.96875 191.878906 268.878906 C 191.347656 267.757812 190.523438 267.425781 189.921875 267.347656 C 187.382812 267.003906 183.285156 270.382812 176.21875 278.632812 C 175.585938 279.367188 174.921875 280.03125 174.238281 280.628906 C 174.613281 279.933594 175.023438 279.15625 175.429688 278.351562 C 177.933594 273.386719 178.085938 271.847656 177.984375 271.117188 C 177.808594 269.863281 177.171875 268.992188 176.191406 268.664062 C 174.496094 268.101562 172.167969 269.28125 169.269531 272.171875 C 163.539062 277.894531 156.816406 283.113281 146.550781 282.558594 C 146.363281 282.550781 146.191406 282.605469 146.046875 282.703125 C 145.542969 281.566406 145.289062 280.691406 145.183594 280.285156 C 148.039062 276.964844 152.871094 272.53125 158.191406 270.59375 C 167.925781 267.058594 174.359375 262.554688 175.410156 258.554688 C 175.789062 257.109375 175.472656 255.75 174.496094 254.613281 C 172.28125 252.042969 168.632812 252.777344 162.011719 254.105469 C 158.160156 254.878906 153.371094 255.839844 147.144531 256.554688 C 137.996094 257.605469 130.894531 260.78125 126.292969 263.484375 C 108.085938 263.609375 89.925781 256.71875 76.402344 244.546875 C 76.074219 244.25 75.570312 244.277344 75.273438 244.605469 C 74.976562 244.933594 75.003906 245.441406 75.332031 245.734375 C 88.523438 257.609375 106.039062 264.5625 123.789062 265.058594 C 119.824219 267.714844 117.753906 269.9375 117.65625 270.042969 C 117.359375 270.367188 117.378906 270.871094 117.703125 271.171875 C 118.03125 271.472656 118.539062 271.449219 118.835938 271.125 C 118.863281 271.097656 121.371094 268.402344 126.125 265.457031 C 126.320312 265.332031 126.527344 265.207031 126.738281 265.082031 C 127.015625 265.070312 127.253906 264.917969 127.390625 264.699219 C 131.855469 262.113281 138.640625 259.144531 147.324219 258.144531 C 153.621094 257.417969 158.449219 256.449219 162.328125 255.671875 C 168.550781 254.421875 171.675781 253.796875 173.28125 255.65625 C 173.914062 256.394531 174.105469 257.210938 173.859375 258.152344 C 173.152344 260.847656 168.519531 265.136719 157.640625 269.09375 C 150.09375 271.835938 143.480469 279.339844 141.625 282.34375 C 141.394531 282.71875 141.511719 283.210938 141.886719 283.445312 C 142.019531 283.523438 142.164062 283.5625 142.308594 283.5625 C 142.574219 283.5625 142.839844 283.429688 142.988281 283.183594 C 143.230469 282.792969 143.5625 282.320312 143.960938 281.789062 C 144.492188 283.332031 145.617188 285.914062 147.84375 288.589844 C 149.867188 291.015625 152.382812 293.011719 155.324219 294.523438 C 158.976562 296.402344 163.292969 297.53125 168.15625 297.878906 C 176.554688 298.480469 184.855469 298.226562 190.363281 297.191406 C 193.367188 296.628906 197.417969 294.699219 201.335938 292.832031 C 207.230469 290.03125 213.90625 286.851562 215.5 289.207031 C 215.730469 289.546875 215.789062 289.925781 215.695312 290.402344 C 214.953125 293.992188 206.292969 299.546875 203.449219 301.375 C 203.132812 301.574219 202.871094 301.742188 202.683594 301.867188 C 193.65625 307.824219 183.265625 309.734375 174.296875 310.816406 C 162.699219 312.214844 151.269531 312.121094 140.324219 310.535156 C 127.070312 308.617188 121.222656 305.871094 115.570312 303.214844 C 112.144531 301.605469 108.910156 300.085938 104.277344 298.910156 C 92.433594 295.90625 77.035156 289.664062 76.878906 289.601562 C 76.46875 289.433594 76 289.628906 75.835938 290.039062 C 75.667969 290.449219 75.863281 290.914062 76.273438 291.082031 C 76.429688 291.144531 91.929688 297.429688 103.878906 300.460938 C 108.367188 301.597656 111.53125 303.085938 114.886719 304.660156 C 120.378906 307.238281 126.605469 310.164062 140.09375 312.117188 C 145.988281 312.972656 152.015625 313.398438 158.136719 313.398438 C 163.527344 313.398438 168.992188 313.066406 174.488281 312.402344 C 183.644531 311.300781 194.261719 309.339844 203.566406 303.203125 C 203.75 303.078125 204.003906 302.917969 204.3125 302.71875 C 209.933594 299.113281 216.488281 294.492188 217.261719 290.722656 C 217.449219 289.824219 217.300781 289.011719 216.828125 288.3125 " fill-opacity="1" fill-rule="nonzero"/></g><g clip-path="url(#f50e781e69)"><path fill="#000000" d="M 300.816406 190.089844 C 300.105469 190.039062 283.273438 188.921875 274.191406 192.054688 C 264.828125 195.285156 260 198.261719 251.929688 203.824219 C 243.199219 209.84375 229.253906 217.710938 221.941406 219.917969 C 212.464844 222.777344 206.332031 225.824219 202.652344 229.503906 L 202.386719 229.765625 C 197.6875 234.449219 193.164062 239.324219 193.855469 242.894531 C 193.234375 243.8125 192.792969 244.855469 192.589844 245.949219 C 192.507812 246.386719 192.796875 246.800781 193.230469 246.882812 C 193.28125 246.894531 193.328125 246.898438 193.378906 246.898438 C 193.757812 246.898438 194.09375 246.628906 194.164062 246.242188 C 194.273438 245.667969 194.460938 245.113281 194.71875 244.589844 C 195.066406 244.960938 195.507812 245.277344 196.039062 245.542969 C 195.636719 246.441406 195.316406 247.339844 195.101562 248.199219 C 194.609375 250.203125 194.738281 251.835938 195.484375 253.050781 C 195.640625 253.304688 195.8125 253.53125 195.992188 253.734375 C 195.820312 254.433594 195.703125 255.148438 195.648438 255.871094 C 195.617188 256.308594 195.949219 256.691406 196.390625 256.726562 C 196.410156 256.726562 196.429688 256.726562 196.449219 256.726562 C 196.863281 256.726562 197.214844 256.40625 197.246094 255.988281 C 197.277344 255.585938 197.332031 255.183594 197.40625 254.785156 C 198.113281 255.117188 198.875 255.238281 199.59375 255.238281 C 200.28125 255.238281 200.929688 255.125 201.460938 254.96875 C 201.683594 255.621094 202.035156 256.175781 202.511719 256.625 C 202.269531 257.371094 202.109375 258.144531 202.03125 258.933594 C 201.992188 259.371094 202.3125 259.761719 202.753906 259.804688 C 202.78125 259.808594 202.804688 259.808594 202.832031 259.808594 C 203.238281 259.808594 203.589844 259.5 203.628906 259.085938 C 203.679688 258.535156 203.785156 257.992188 203.933594 257.457031 C 204.507812 257.644531 205.160156 257.722656 205.871094 257.722656 C 207.847656 257.722656 210.257812 257.105469 212.574219 256.382812 C 212.675781 257.300781 213.214844 258.074219 214.179688 258.695312 C 214.328125 258.789062 214.492188 258.871094 214.671875 258.945312 C 214.515625 259.417969 214.390625 259.902344 214.308594 260.394531 C 214.230469 260.828125 214.523438 261.242188 214.960938 261.316406 C 215.007812 261.324219 215.054688 261.328125 215.097656 261.328125 C 215.480469 261.328125 215.820312 261.050781 215.886719 260.664062 C 215.964844 260.199219 216.085938 259.746094 216.246094 259.300781 C 216.488281 259.320312 216.746094 259.335938 217.015625 259.335938 C 218.054688 259.335938 219.25 259.167969 220.527344 258.839844 C 222.367188 258.359375 228.332031 256.4375 231.925781 250.941406 C 234.167969 250.199219 247.65625 245.519531 261.527344 235.921875 C 275.628906 226.164062 288.160156 225.097656 299.78125 224.835938 C 300.222656 224.828125 300.574219 224.460938 300.566406 224.019531 C 300.554688 223.578125 300.1875 223.230469 299.746094 223.238281 C 294.03125 223.363281 287.839844 223.699219 281.285156 225.261719 C 273.929688 227.015625 267.167969 230.074219 260.613281 234.609375 C 248.558594 242.949219 236.804688 247.523438 232.675781 248.988281 C 232.605469 248.839844 232.488281 248.707031 232.328125 248.621094 C 231.9375 248.414062 231.453125 248.5625 231.246094 248.953125 C 231.105469 249.207031 230.960938 249.457031 230.8125 249.699219 C 230.714844 249.792969 230.640625 249.90625 230.597656 250.035156 C 227.96875 254.039062 223.5625 256.398438 220.121094 257.289062 C 218.894531 257.609375 217.835938 257.738281 216.984375 257.734375 C 217.28125 257.242188 217.625 256.78125 218.015625 256.363281 C 218.320312 256.039062 218.300781 255.53125 217.976562 255.230469 C 217.652344 254.929688 217.144531 254.949219 216.84375 255.273438 C 216.234375 255.929688 215.710938 256.675781 215.296875 257.472656 C 215.203125 257.433594 215.117188 257.394531 215.046875 257.347656 C 214.292969 256.863281 214.027344 256.390625 214.214844 255.582031 C 214.25 255.507812 214.269531 255.429688 214.28125 255.347656 C 214.492188 254.664062 214.984375 253.757812 215.738281 252.460938 C 216.117188 251.8125 216.542969 251.078125 216.960938 250.292969 C 218.660156 247.070312 221.863281 245.203125 224.199219 243.84375 C 225.183594 243.269531 225.960938 242.816406 226.480469 242.355469 C 226.808594 242.058594 226.839844 241.554688 226.542969 241.222656 C 226.25 240.894531 225.742188 240.867188 225.414062 241.160156 C 225.015625 241.515625 224.261719 241.953125 223.390625 242.460938 C 221.027344 243.839844 217.457031 245.917969 215.542969 249.546875 C 215.144531 250.304688 214.742188 250.992188 214.355469 251.65625 C 213.71875 252.746094 213.152344 253.722656 212.828125 254.621094 C 212.75 254.648438 212.667969 254.671875 212.578125 254.703125 C 211.027344 255.195312 206.640625 256.597656 204.492188 255.957031 C 204.710938 255.496094 204.964844 255.046875 205.257812 254.625 C 205.507812 254.261719 205.417969 253.761719 205.050781 253.511719 C 204.6875 253.261719 204.191406 253.351562 203.9375 253.71875 C 203.667969 254.109375 203.421875 254.519531 203.203125 254.945312 C 202.96875 254.546875 202.828125 254.058594 202.785156 253.472656 C 202.554688 250.324219 205.230469 245.296875 207.777344 242.753906 C 209.378906 241.15625 211.976562 239.714844 214.0625 238.554688 C 215.472656 237.769531 216.699219 237.089844 217.382812 236.496094 C 217.71875 236.207031 217.753906 235.699219 217.464844 235.367188 C 217.171875 235.035156 216.667969 234.996094 216.335938 235.289062 C 215.773438 235.773438 214.617188 236.414062 213.28125 237.15625 C 211.109375 238.363281 208.402344 239.867188 206.644531 241.621094 C 203.859375 244.402344 201.019531 249.640625 201.179688 253.378906 C 200.628906 253.558594 199.066406 253.953125 197.824219 253.195312 C 198.078125 252.445312 198.417969 251.722656 198.828125 251.046875 C 199.058594 250.667969 198.9375 250.175781 198.558594 249.949219 C 198.179688 249.71875 197.6875 249.839844 197.457031 250.21875 C 197.148438 250.722656 196.878906 251.253906 196.648438 251.796875 C 196.335938 250.988281 196.335938 249.890625 196.660156 248.582031 C 197.699219 244.371094 201.738281 239.074219 204.390625 237.492188 C 208.667969 234.945312 210.941406 233.425781 210.964844 233.410156 C 211.332031 233.164062 211.429688 232.664062 211.179688 232.300781 C 210.933594 231.933594 210.4375 231.835938 210.070312 232.082031 C 210.046875 232.097656 207.804688 233.597656 203.570312 236.121094 C 201.4375 237.386719 198.605469 240.652344 196.75 244.109375 C 196.238281 243.855469 195.871094 243.542969 195.652344 243.175781 C 195.996094 242.78125 196.386719 242.425781 196.816406 242.121094 C 197.175781 241.867188 197.265625 241.367188 197.007812 241.007812 C 196.753906 240.644531 196.253906 240.558594 195.894531 240.816406 C 195.777344 240.894531 195.667969 240.980469 195.554688 241.066406 C 196.476562 237.921875 200.941406 233.46875 203.519531 230.898438 L 203.785156 230.632812 C 207.273438 227.148438 213.191406 224.230469 222.40625 221.449219 C 229.863281 219.195312 244.011719 211.230469 252.839844 205.140625 C 260.789062 199.660156 265.539062 196.734375 274.714844 193.566406 C 283.488281 190.542969 300.535156 191.675781 300.707031 191.6875 C 301.148438 191.71875 301.527344 191.382812 301.558594 190.941406 C 301.589844 190.503906 301.257812 190.121094 300.816406 190.089844 " fill-opacity="1" fill-rule="nonzero"/></g><g fill="#000000" fill-opacity="1"><g transform="translate(119.744587, 71.162779)"><g><path d="M 20.226562 -6.230469 C 18.792969 -5.070312 16.796875 -4.402344 15.125 -4.402344 C 10.257812 -4.402344 6.351562 -8.140625 6.351562 -12.9375 C 6.351562 -17.734375 10.242188 -21.523438 15.125 -21.523438 C 16.882812 -21.523438 18.84375 -20.875 20.277344 -19.648438 C 20.722656 -19.289062 21.199219 -19.390625 21.386719 -19.679688 L 23.332031 -22.617188 C 23.519531 -22.890625 23.503906 -23.28125 23.078125 -23.605469 C 20.945312 -25.3125 17.71875 -26.320312 15.125 -26.320312 C 7.542969 -26.320312 1.535156 -20.449219 1.535156 -12.9375 C 1.535156 -5.429688 7.542969 0.410156 15.125 0.410156 C 17.785156 0.410156 20.925781 -0.648438 22.976562 -2.253906 C 23.351562 -2.527344 23.503906 -2.96875 23.332031 -3.226562 L 21.386719 -6.195312 C 21.164062 -6.519531 20.652344 -6.539062 20.226562 -6.230469 Z M 20.226562 -6.230469 "/></g></g></g><g fill="#000000" fill-opacity="1"><g transform="translate(144.887026, 71.162779)"><g><path d="M 18.707031 -17.34375 L 16.8125 -17.34375 C 16.539062 -17.34375 16.335938 -17.1875 16.234375 -16.964844 L 15.53125 -14.628906 C 14.148438 -16.609375 12.015625 -17.75 9.507812 -17.75 C 4.78125 -17.75 1.210938 -13.894531 1.210938 -8.636719 C 1.210938 -3.480469 4.796875 0.394531 9.523438 0.394531 C 12.035156 0.394531 14.148438 -0.75 15.53125 -2.695312 L 16.234375 -0.359375 C 16.335938 -0.136719 16.539062 0.015625 16.8125 0.015625 L 18.707031 0.015625 C 19.03125 0.015625 19.253906 -0.203125 19.253906 -0.527344 L 19.253906 -16.777344 C 19.253906 -17.121094 19.03125 -17.34375 18.707031 -17.34375 Z M 10.328125 -3.859375 C 7.75 -3.859375 5.582031 -5.957031 5.582031 -8.652344 C 5.582031 -11.386719 7.730469 -13.484375 10.308594 -13.484375 C 12.9375 -13.484375 15.140625 -11.386719 15.140625 -8.652344 C 15.140625 -5.957031 12.957031 -3.859375 10.328125 -3.859375 Z M 10.328125 -3.859375 "/></g></g></g><g fill="#000000" fill-opacity="1"><g transform="translate(166.410867, 71.162779)"><g><path d="M 15.414062 -16.128906 C 14.234375 -17.101562 12.648438 -17.734375 11.28125 -17.734375 C 9.234375 -17.734375 7.152344 -16.421875 6.042969 -14.472656 L 5.292969 -16.964844 C 5.171875 -17.1875 4.984375 -17.34375 4.710938 -17.34375 L 2.816406 -17.34375 C 2.492188 -17.34375 2.269531 -17.121094 2.269531 -16.777344 L 2.269531 -0.511719 C 2.269531 -0.171875 2.457031 0.015625 2.800781 0.015625 L 6.078125 0.015625 C 6.402344 0.015625 6.605469 -0.171875 6.605469 -0.511719 L 6.605469 -9.492188 C 6.605469 -11.914062 8.382812 -13.980469 10.753906 -13.980469 C 11.523438 -13.980469 12.496094 -13.554688 13.28125 -12.902344 C 13.554688 -12.664062 13.859375 -12.734375 14.082031 -13.074219 L 15.480469 -15.328125 C 15.6875 -15.636719 15.617188 -15.960938 15.414062 -16.128906 Z M 15.414062 -16.128906 "/></g></g></g><g fill="#000000" fill-opacity="1"><g transform="translate(182.745774, 71.162779)"><g><path d="M 18.808594 -9.492188 C 18.808594 -14.117188 15.039062 -17.734375 10.207031 -17.734375 C 5.171875 -17.734375 1.210938 -13.722656 1.210938 -8.636719 C 1.210938 -3.566406 5.257812 0.425781 10.429688 0.425781 C 12.410156 0.425781 15.054688 -0.511719 16.539062 -1.742188 C 16.777344 -1.964844 16.8125 -2.320312 16.625 -2.59375 L 14.882812 -4.882812 C 14.679688 -5.136719 14.304688 -5.207031 14.046875 -5 C 13.023438 -4.25 11.523438 -3.6875 10.546875 -3.6875 C 8.347656 -3.6875 6.539062 -4.898438 5.90625 -6.589844 L 16.574219 -6.589844 C 17.835938 -6.589844 18.808594 -8.054688 18.808594 -9.492188 Z M 10.105469 -13.671875 C 12.222656 -13.671875 13.960938 -12.375 14.492188 -10.53125 L 5.855469 -10.53125 C 6.417969 -12.359375 8.089844 -13.671875 10.105469 -13.671875 Z M 10.105469 -13.671875 "/></g></g></g><g fill="#000000" fill-opacity="1"><g transform="translate(202.750479, 71.162779)"><g><path d="M 30.878906 -0.769531 L 28.367188 -25.6875 C 28.316406 -26.097656 28.113281 -26.320312 27.703125 -26.320312 L 27.636719 -26.320312 C 27.207031 -26.320312 27.121094 -26.082031 26.902344 -25.722656 L 16.25 -7.648438 L 5.597656 -25.722656 C 5.375 -26.082031 5.292969 -26.320312 4.863281 -26.320312 L 4.78125 -26.320312 C 4.386719 -26.320312 4.164062 -26.097656 4.128906 -25.6875 L 1.621094 -0.769531 C 1.554688 -0.222656 1.878906 0.015625 2.371094 0.015625 L 5.683594 0.015625 C 6.160156 0.015625 6.402344 -0.1875 6.46875 -0.71875 L 7.714844 -13.363281 L 15.394531 -0.308594 C 15.703125 0.171875 15.824219 0.375 16.25 0.375 L 16.265625 0.375 C 16.675781 0.375 16.796875 0.171875 17.101562 -0.308594 L 24.800781 -13.382812 L 26.03125 -0.71875 C 26.082031 -0.1875 26.335938 0.015625 26.816406 0.015625 L 30.125 0.015625 C 30.621094 0.015625 30.929688 -0.222656 30.878906 -0.769531 Z M 30.878906 -0.769531 "/></g></g></g><g fill="#000000" fill-opacity="1"><g transform="translate(235.232529, 71.162779)"><g><path d="M 18.808594 -9.492188 C 18.808594 -14.117188 15.039062 -17.734375 10.207031 -17.734375 C 5.171875 -17.734375 1.210938 -13.722656 1.210938 -8.636719 C 1.210938 -3.566406 5.257812 0.425781 10.429688 0.425781 C 12.410156 0.425781 15.054688 -0.511719 16.539062 -1.742188 C 16.777344 -1.964844 16.8125 -2.320312 16.625 -2.59375 L 14.882812 -4.882812 C 14.679688 -5.136719 14.304688 -5.207031 14.046875 -5 C 13.023438 -4.25 11.523438 -3.6875 10.546875 -3.6875 C 8.347656 -3.6875 6.539062 -4.898438 5.90625 -6.589844 L 16.574219 -6.589844 C 17.835938 -6.589844 18.808594 -8.054688 18.808594 -9.492188 Z M 10.105469 -13.671875 C 12.222656 -13.671875 13.960938 -12.375 14.492188 -10.53125 L 5.855469 -10.53125 C 6.417969 -12.359375 8.089844 -13.671875 10.105469 -13.671875 Z M 10.105469 -13.671875 "/></g></g></g><g fill="#ffde59" fill-opacity="1"><g transform="translate(226.632565, 338.181917)"><g><path d="M -6.140625 -20.578125 C -5.085938 -21.222656 -3.953125 -21.59375 -2.734375 -21.6875 C -1.515625 -21.789062 -0.304688 -21.507812 0.890625 -20.84375 C 2.097656 -20.175781 3.175781 -19.0625 4.125 -17.5 C 4.882812 -16.25 5.3125 -15.015625 5.40625 -13.796875 C 5.5 -12.585938 5.300781 -11.492188 4.8125 -10.515625 C 4.320312 -9.546875 3.597656 -8.769531 2.640625 -8.1875 C 2.328125 -8 2 -7.828125 1.65625 -7.671875 C 3.332031 -4.898438 4.226562 -3.378906 4.34375 -3.109375 C 4.414062 -2.910156 4.441406 -2.773438 4.421875 -2.703125 C 4.398438 -2.628906 4.332031 -2.554688 4.21875 -2.484375 L 3.546875 -2.109375 C 3.398438 -2.046875 3.203125 -1.941406 2.953125 -1.796875 L 2.078125 -1.21875 C 1.535156 -0.894531 1.179688 -0.867188 1.015625 -1.140625 L 0.078125 -2.75 C -0.0351562 -2.96875 -0.1875 -3.226562 -0.375 -3.53125 L -1.9375 -6.109375 L -2.78125 -7.546875 L -4.09375 -9.65625 L -9.203125 -18.0625 C -9.242188 -18.132812 -9.148438 -18.285156 -8.921875 -18.515625 C -8.609375 -18.828125 -8.28125 -19.117188 -7.9375 -19.390625 C -7.59375 -19.660156 -6.992188 -20.054688 -6.140625 -20.578125 Z M 0.5 -11.40625 C 1.144531 -11.800781 1.539062 -12.285156 1.6875 -12.859375 C 1.84375 -13.441406 1.648438 -14.179688 1.109375 -15.078125 C 0.421875 -16.222656 -0.3125 -16.945312 -1.09375 -17.25 C -1.875 -17.5625 -2.691406 -17.460938 -3.546875 -16.953125 C -3.671875 -16.867188 -3.78125 -16.785156 -3.875 -16.703125 L -3.796875 -16.5625 L -0.390625 -10.953125 C -0.0664062 -11.085938 0.226562 -11.238281 0.5 -11.40625 Z M 0.5 -11.40625 "/></g></g></g><g fill="#ffde59" fill-opacity="1"><g transform="translate(238.576217, 330.920783)"><g><path d="M -2.859375 -6.40625 C -4.128906 -8.375 -4.597656 -10.390625 -4.265625 -12.453125 C -3.941406 -14.367188 -2.945312 -15.867188 -1.28125 -16.953125 C -0.132812 -17.691406 0.910156 -17.988281 1.859375 -17.84375 C 2.816406 -17.695312 3.632812 -17.097656 4.3125 -16.046875 C 5.019531 -14.960938 5.320312 -13.832031 5.21875 -12.65625 C 5.113281 -11.488281 4.738281 -10.390625 4.09375 -9.359375 C 3.445312 -8.328125 2.660156 -7.457031 1.734375 -6.75 C 2.148438 -6.488281 2.582031 -6.378906 3.03125 -6.421875 C 3.488281 -6.460938 3.929688 -6.617188 4.359375 -6.890625 C 4.828125 -7.203125 5.171875 -7.550781 5.390625 -7.9375 C 5.609375 -8.320312 5.765625 -8.6875 5.859375 -9.03125 C 5.960938 -9.382812 6.023438 -9.570312 6.046875 -9.59375 C 6.179688 -9.675781 6.398438 -9.664062 6.703125 -9.5625 C 7.203125 -9.445312 7.640625 -9.269531 8.015625 -9.03125 C 8.097656 -8.988281 8.269531 -8.898438 8.53125 -8.765625 C 8.789062 -8.628906 8.972656 -8.476562 9.078125 -8.3125 C 9.160156 -8.175781 9.195312 -8.023438 9.1875 -7.859375 C 9.175781 -7.691406 9.125 -7.472656 9.03125 -7.203125 C 8.820312 -6.421875 8.484375 -5.753906 8.015625 -5.203125 C 7.554688 -4.660156 6.910156 -4.117188 6.078125 -3.578125 C 5.097656 -2.941406 4.0625 -2.632812 2.96875 -2.65625 C 1.875 -2.6875 0.816406 -3.023438 -0.203125 -3.671875 C -1.222656 -4.328125 -2.109375 -5.238281 -2.859375 -6.40625 Z M 0.078125 -8.71875 C 0.773438 -9.226562 1.300781 -9.75 1.65625 -10.28125 C 2.019531 -10.820312 2.226562 -11.304688 2.28125 -11.734375 C 2.332031 -12.160156 2.269531 -12.507812 2.09375 -12.78125 C 1.75 -13.332031 1.257812 -13.398438 0.625 -12.984375 C 0.320312 -12.785156 0.0859375 -12.457031 -0.078125 -12 C -0.253906 -11.550781 -0.332031 -11.03125 -0.3125 -10.4375 C -0.300781 -9.851562 -0.171875 -9.28125 0.078125 -8.71875 Z M 0.078125 -8.71875 "/></g></g></g><g fill="#ffde59" fill-opacity="1"><g transform="translate(250.090667, 323.454131)"><g><path d="M 7.0625 -9.203125 C 7.175781 -9.109375 7.347656 -8.929688 7.578125 -8.671875 C 7.816406 -8.421875 8.003906 -8.195312 8.140625 -8 C 8.410156 -7.613281 8.441406 -7.148438 8.234375 -6.609375 C 8.109375 -6.234375 7.90625 -5.84375 7.625 -5.4375 C 7.394531 -5.113281 7.160156 -4.8125 6.921875 -4.53125 C 6.679688 -4.257812 6.363281 -3.988281 5.96875 -3.71875 C 5.59375 -3.46875 5.101562 -3.28125 4.5 -3.15625 C 3.800781 -3.007812 3.160156 -3.035156 2.578125 -3.234375 C 1.921875 -3.484375 1.3125 -3.835938 0.75 -4.296875 C 0.414062 -4.578125 0.0078125 -4.96875 -0.46875 -5.46875 C -0.945312 -5.96875 -1.320312 -6.421875 -1.59375 -6.828125 C -1.96875 -7.367188 -2.257812 -7.78125 -2.46875 -8.0625 C -2.675781 -8.320312 -2.863281 -8.585938 -3.03125 -8.859375 C -3.207031 -9.128906 -3.363281 -9.359375 -3.5 -9.546875 L -4.015625 -10.296875 L -4.796875 -9.765625 C -5.015625 -9.609375 -5.265625 -9.742188 -5.546875 -10.171875 L -6.109375 -10.984375 L -7.046875 -12.359375 C -7.160156 -12.523438 -7.195312 -12.644531 -7.15625 -12.71875 C -7.125 -12.800781 -7.007812 -12.921875 -6.8125 -13.078125 L -6.234375 -13.484375 C -6.316406 -13.597656 -6.425781 -13.765625 -6.5625 -13.984375 C -6.707031 -14.210938 -6.9375 -14.5625 -7.25 -15.03125 L -7.78125 -15.796875 C -7.851562 -15.898438 -7.925781 -16 -8 -16.09375 C -8.082031 -16.195312 -8.15625 -16.3125 -8.21875 -16.4375 C -8.332031 -16.632812 -8.289062 -16.859375 -8.09375 -17.109375 C -7.90625 -17.367188 -7.644531 -17.613281 -7.3125 -17.84375 C -6.675781 -18.269531 -6.1875 -18.566406 -5.84375 -18.734375 C -5.5 -18.910156 -5.238281 -18.867188 -5.0625 -18.609375 L -4.46875 -17.703125 C -4.164062 -17.265625 -3.953125 -16.976562 -3.828125 -16.84375 C -3.703125 -16.707031 -3.617188 -16.601562 -3.578125 -16.53125 L -3.015625 -15.6875 L -2.734375 -15.890625 C -2.515625 -16.003906 -2.113281 -16.265625 -1.53125 -16.671875 L -0.703125 -17.28125 L -0.109375 -17.734375 C 0.0546875 -17.847656 0.210938 -17.894531 0.359375 -17.875 C 0.503906 -17.851562 0.660156 -17.722656 0.828125 -17.484375 C 0.898438 -17.367188 0.992188 -17.1875 1.109375 -16.9375 L 1.46875 -16.296875 C 1.6875 -15.929688 1.925781 -15.554688 2.1875 -15.171875 C 2.300781 -15.003906 2.273438 -14.820312 2.109375 -14.625 C 1.953125 -14.425781 1.648438 -14.175781 1.203125 -13.875 L 0.03125 -13.109375 L -0.890625 -12.484375 L 1.078125 -9.515625 C 1.347656 -9.128906 1.6875 -8.6875 2.09375 -8.1875 C 2.394531 -7.800781 2.75 -7.5625 3.15625 -7.46875 C 3.570312 -7.382812 3.972656 -7.476562 4.359375 -7.75 C 4.671875 -7.957031 4.921875 -8.210938 5.109375 -8.515625 C 5.304688 -8.828125 5.441406 -9.117188 5.515625 -9.390625 C 5.554688 -9.523438 5.597656 -9.6875 5.640625 -9.875 C 5.679688 -10.0625 5.722656 -10.171875 5.765625 -10.203125 C 5.847656 -10.265625 5.957031 -10.222656 6.09375 -10.078125 C 6.3125 -9.847656 6.632812 -9.554688 7.0625 -9.203125 Z M 7.0625 -9.203125 "/></g></g></g><g fill="#ffde59" fill-opacity="1"><g transform="translate(260.089109, 316.562684)"><g/></g></g><g fill="#ffde59" fill-opacity="1"><g transform="translate(265.070567, 313.062972)"><g><path d="M 9.890625 -8.546875 C 10.285156 -8.015625 10.332031 -7.632812 10.03125 -7.40625 L 9.46875 -7.03125 C 9.351562 -6.96875 9.175781 -6.847656 8.9375 -6.671875 L 8.125 -6.03125 C 7.613281 -5.632812 7.265625 -5.5625 7.078125 -5.8125 L 6.171875 -7.09375 C 5.804688 -7.644531 5.570312 -7.976562 5.46875 -8.09375 L 3.46875 -10.78125 C 2.15625 -9.800781 1.132812 -9.023438 0.40625 -8.453125 L 0.6875 -8.078125 L 3.609375 -4.125 C 3.890625 -3.738281 4.039062 -3.453125 4.0625 -3.265625 C 4.082031 -3.078125 4.007812 -2.921875 3.84375 -2.796875 L 3.296875 -2.421875 C 3.179688 -2.359375 3.003906 -2.238281 2.765625 -2.0625 L 1.953125 -1.421875 C 1.441406 -1.035156 1.09375 -0.96875 0.90625 -1.21875 L -0.1875 -2.75 C -0.320312 -2.957031 -0.492188 -3.203125 -0.703125 -3.484375 L -2.515625 -5.90625 L -3.5 -7.265625 L -5 -9.234375 L -10.875 -17.109375 C -10.9375 -17.203125 -10.832031 -17.390625 -10.5625 -17.671875 C -10.289062 -17.953125 -9.96875 -18.234375 -9.59375 -18.515625 C -9.375 -18.710938 -9.117188 -18.894531 -8.828125 -19.0625 C -8.535156 -19.238281 -8.3125 -19.335938 -8.15625 -19.359375 C -7.957031 -19.410156 -7.738281 -19.273438 -7.5 -18.953125 L -6.46875 -17.5625 L -3.671875 -13.796875 C -3.304688 -13.296875 -2.722656 -12.539062 -1.921875 -11.53125 L 1.1875 -13.8125 L -4.703125 -21.71875 C -4.765625 -21.8125 -4.660156 -22 -4.390625 -22.28125 C -4.117188 -22.5625 -3.796875 -22.84375 -3.421875 -23.125 C -3.179688 -23.332031 -2.921875 -23.519531 -2.640625 -23.6875 C -2.359375 -23.851562 -2.140625 -23.941406 -1.984375 -23.953125 C -1.765625 -23.972656 -1.546875 -23.835938 -1.328125 -23.546875 L 1.46875 -19.796875 L 2.578125 -18.359375 L 6.859375 -12.6875 Z M 9.890625 -8.546875 "/></g></g></g><g fill="#ffde59" fill-opacity="1"><g transform="translate(276.984097, 304.160855)"><g><path d="M 5.515625 -13.8125 C 5.984375 -13.226562 6.378906 -12.597656 6.703125 -11.921875 C 7.035156 -11.253906 7.34375 -10.367188 7.625 -9.265625 C 7.875 -8.273438 7.832031 -7.296875 7.5 -6.328125 C 7.175781 -5.367188 6.503906 -4.484375 5.484375 -3.671875 C 4.929688 -3.234375 4.367188 -2.953125 3.796875 -2.828125 C 2.523438 -2.523438 1.265625 -2.65625 0.015625 -3.21875 C -1.234375 -3.789062 -2.507812 -4.894531 -3.8125 -6.53125 C -4.238281 -7.070312 -4.601562 -7.691406 -4.90625 -8.390625 C -5.207031 -9.085938 -5.410156 -9.664062 -5.515625 -10.125 C -5.742188 -11.59375 -5.726562 -12.820312 -5.46875 -13.8125 C -5.21875 -14.8125 -4.570312 -15.722656 -3.53125 -16.546875 C -2.882812 -17.054688 -2.222656 -17.382812 -1.546875 -17.53125 C -0.867188 -17.6875 -0.25 -17.660156 0.3125 -17.453125 C 0.445312 -17.398438 0.835938 -17.265625 1.484375 -17.046875 C 2.140625 -16.835938 2.800781 -16.460938 3.46875 -15.921875 C 4.144531 -15.378906 4.828125 -14.675781 5.515625 -13.8125 Z M -0.84375 -13.015625 C -1.09375 -12.816406 -1.285156 -12.53125 -1.421875 -12.15625 C -1.554688 -11.78125 -1.582031 -11.394531 -1.5 -11 C -1.394531 -10.625 -1.234375 -10.1875 -1.015625 -9.6875 C -0.796875 -9.195312 -0.554688 -8.785156 -0.296875 -8.453125 C 0.898438 -6.953125 1.984375 -6.585938 2.953125 -7.359375 C 3.484375 -7.785156 3.695312 -8.367188 3.59375 -9.109375 C 3.5 -9.859375 3.070312 -10.710938 2.3125 -11.671875 C 1.0625 -13.242188 0.0078125 -13.691406 -0.84375 -13.015625 Z M -0.84375 -13.015625 "/></g></g></g><g fill="#ffde59" fill-opacity="1"><g transform="translate(288.186781, 295.258616)"><g><path d="M -0.859375 -18.390625 C -0.765625 -18.492188 -0.617188 -18.628906 -0.421875 -18.796875 C -0.140625 -19.023438 0.09375 -19.128906 0.28125 -19.109375 C 0.332031 -19.085938 0.65625 -18.726562 1.25 -18.03125 L 7.171875 -10.984375 C 7.492188 -10.648438 7.726562 -10.398438 7.875 -10.234375 L 8.640625 -9.375 C 8.804688 -9.195312 9.0625 -8.90625 9.40625 -8.5 C 9.476562 -8.414062 9.519531 -8.3125 9.53125 -8.1875 C 9.539062 -8.0625 9.515625 -7.972656 9.453125 -7.921875 L 8.34375 -6.984375 C 8.207031 -6.867188 8.070312 -6.769531 7.9375 -6.6875 C 7.8125 -6.613281 7.6875 -6.523438 7.5625 -6.421875 C 7.46875 -6.335938 7.382812 -6.25 7.3125 -6.15625 C 7.101562 -5.988281 6.921875 -6 6.765625 -6.1875 L 5.1875 -7.890625 L 5 -8.109375 C 4.695312 -8.460938 4.503906 -8.609375 4.421875 -8.546875 C 4.484375 -8.398438 4.59375 -8.113281 4.75 -7.6875 C 4.914062 -7.257812 5.023438 -6.867188 5.078125 -6.515625 C 5.128906 -6.171875 5.148438 -5.765625 5.140625 -5.296875 C 5.117188 -4.378906 4.765625 -3.628906 4.078125 -3.046875 C 3.296875 -2.378906 2.46875 -2.171875 1.59375 -2.421875 C 0.71875 -2.671875 -0.351562 -3.269531 -1.625 -4.21875 C -1.957031 -4.46875 -2.46875 -4.941406 -3.15625 -5.640625 C -3.84375 -6.335938 -4.421875 -6.960938 -4.890625 -7.515625 L -6.640625 -9.65625 C -6.847656 -9.925781 -7.125 -10.265625 -7.46875 -10.671875 C -7.664062 -10.910156 -7.847656 -11.160156 -8.015625 -11.421875 C -8.191406 -11.679688 -8.273438 -11.835938 -8.265625 -11.890625 C -8.210938 -12.242188 -7.898438 -12.664062 -7.328125 -13.15625 C -6.847656 -13.5625 -6.375 -13.898438 -5.90625 -14.171875 C -5.789062 -14.242188 -5.632812 -14.265625 -5.4375 -14.234375 C -5.25 -14.210938 -5.078125 -14.109375 -4.921875 -13.921875 L -3.640625 -12.359375 C -2.691406 -11.171875 -1.960938 -10.273438 -1.453125 -9.671875 C -0.722656 -8.804688 -0.0078125 -8.109375 0.6875 -7.578125 C 1.382812 -7.046875 1.988281 -7 2.5 -7.4375 C 2.820312 -7.707031 2.898438 -8.175781 2.734375 -8.84375 C 2.566406 -9.519531 2.234375 -10.285156 1.734375 -11.140625 C 1.660156 -11.304688 1.445312 -11.613281 1.09375 -12.0625 C 0.75 -12.519531 0.453125 -12.894531 0.203125 -13.1875 L -0.921875 -14.53125 C -1.640625 -15.375 -2.125 -15.96875 -2.375 -16.3125 C -2.625 -16.65625 -2.679688 -16.875 -2.546875 -16.96875 C -2.273438 -17.15625 -1.878906 -17.46875 -1.359375 -17.90625 Z M -0.859375 -18.390625 "/></g></g></g><g fill="#ffde59" fill-opacity="1"><g transform="translate(299.046356, 286.076563)"><g><path d="M -1.71875 -17.109375 C -1.425781 -16.785156 -1.09375 -16.332031 -0.71875 -15.75 C -0.34375 -15.175781 -0.0976562 -14.742188 0.015625 -14.453125 C 0.0546875 -14.328125 0.0195312 -14.210938 -0.09375 -14.109375 C -0.1875 -14.023438 -0.363281 -13.925781 -0.625 -13.8125 L -1.234375 -13.625 C -1.691406 -13.476562 -2.046875 -13.351562 -2.296875 -13.25 C -2.554688 -13.144531 -2.800781 -12.988281 -3.03125 -12.78125 C -3.539062 -12.320312 -3.613281 -11.882812 -3.25 -11.46875 C -3.03125 -11.226562 -2.722656 -11.101562 -2.328125 -11.09375 C -1.941406 -11.09375 -1.378906 -11.148438 -0.640625 -11.265625 L 0.109375 -11.375 C 0.960938 -11.488281 1.640625 -11.539062 2.140625 -11.53125 C 2.648438 -11.519531 3.125 -11.414062 3.5625 -11.21875 C 4 -11.019531 4.441406 -10.671875 4.890625 -10.171875 C 5.421875 -9.578125 5.773438 -8.878906 5.953125 -8.078125 C 6.128906 -7.273438 6.109375 -6.484375 5.890625 -5.703125 C 5.671875 -4.929688 5.242188 -4.265625 4.609375 -3.703125 C 3.859375 -3.035156 3.109375 -2.570312 2.359375 -2.3125 C 1.617188 -2.050781 0.789062 -1.945312 -0.125 -2 C -0.207031 -2.007812 -0.394531 -2.148438 -0.6875 -2.421875 C -0.988281 -2.691406 -1.21875 -2.914062 -1.375 -3.09375 C -1.6875 -3.445312 -1.910156 -3.820312 -2.046875 -4.21875 C -2.191406 -4.613281 -2.171875 -4.894531 -1.984375 -5.0625 C -1.867188 -5.164062 -1.742188 -5.210938 -1.609375 -5.203125 C -0.773438 -5.234375 -0.0859375 -5.328125 0.453125 -5.484375 C 1.003906 -5.648438 1.484375 -5.914062 1.890625 -6.28125 C 2.109375 -6.476562 2.203125 -6.691406 2.171875 -6.921875 C 2.148438 -7.160156 2.046875 -7.390625 1.859375 -7.609375 C 1.597656 -7.898438 1.113281 -8.023438 0.40625 -7.984375 C -0.289062 -7.941406 -1.054688 -7.828125 -1.890625 -7.640625 C -2.710938 -7.441406 -3.472656 -7.414062 -4.171875 -7.5625 C -4.878906 -7.71875 -5.550781 -8.148438 -6.1875 -8.859375 C -6.601562 -9.328125 -6.910156 -9.789062 -7.109375 -10.25 C -7.316406 -10.71875 -7.390625 -11.257812 -7.328125 -11.875 C -7.203125 -13.070312 -6.585938 -14.160156 -5.484375 -15.140625 C -5.148438 -15.441406 -4.691406 -15.757812 -4.109375 -16.09375 C -3.535156 -16.4375 -3.007812 -16.707031 -2.53125 -16.90625 C -2.050781 -17.113281 -1.78125 -17.179688 -1.71875 -17.109375 Z M -1.71875 -17.109375 "/></g></g></g><g fill="#ffde59" fill-opacity="1"><g transform="translate(307.836487, 278.267652)"><g><path d="M -3.96875 -5.796875 C -5.570312 -7.503906 -6.382812 -9.40625 -6.40625 -11.5 C -6.425781 -13.445312 -5.710938 -15.097656 -4.265625 -16.453125 C -3.265625 -17.390625 -2.285156 -17.867188 -1.328125 -17.890625 C -0.367188 -17.910156 0.535156 -17.460938 1.390625 -16.546875 C 2.273438 -15.609375 2.773438 -14.554688 2.890625 -13.390625 C 3.003906 -12.222656 2.832031 -11.070312 2.375 -9.9375 C 1.914062 -8.8125 1.289062 -7.8125 0.5 -6.9375 C 0.957031 -6.769531 1.40625 -6.742188 1.84375 -6.859375 C 2.28125 -6.984375 2.6875 -7.21875 3.0625 -7.5625 C 3.46875 -7.945312 3.742188 -8.34375 3.890625 -8.75 C 4.046875 -9.164062 4.132812 -9.554688 4.15625 -9.921875 C 4.1875 -10.296875 4.21875 -10.492188 4.25 -10.515625 C 4.363281 -10.617188 4.578125 -10.648438 4.890625 -10.609375 C 5.398438 -10.578125 5.863281 -10.476562 6.28125 -10.3125 C 6.363281 -10.28125 6.546875 -10.222656 6.828125 -10.140625 C 7.109375 -10.054688 7.316406 -9.945312 7.453125 -9.8125 C 7.566406 -9.695312 7.628906 -9.550781 7.640625 -9.375 C 7.648438 -9.207031 7.640625 -8.976562 7.609375 -8.6875 C 7.546875 -7.882812 7.332031 -7.171875 6.96875 -6.546875 C 6.613281 -5.929688 6.070312 -5.285156 5.34375 -4.609375 C 4.488281 -3.804688 3.519531 -3.316406 2.4375 -3.140625 C 1.351562 -2.972656 0.253906 -3.117188 -0.859375 -3.578125 C -1.984375 -4.046875 -3.019531 -4.785156 -3.96875 -5.796875 Z M -1.484375 -8.59375 C -0.890625 -9.21875 -0.457031 -9.828125 -0.1875 -10.421875 C 0.0703125 -11.015625 0.1875 -11.523438 0.15625 -11.953125 C 0.132812 -12.390625 0.015625 -12.726562 -0.203125 -12.96875 C -0.640625 -13.4375 -1.132812 -13.410156 -1.6875 -12.890625 C -1.957031 -12.640625 -2.132812 -12.273438 -2.21875 -11.796875 C -2.300781 -11.316406 -2.28125 -10.789062 -2.15625 -10.21875 C -2.039062 -9.644531 -1.816406 -9.101562 -1.484375 -8.59375 Z M -1.484375 -8.59375 "/></g></g></g></svg>