<?xml version="1.0" standalone="no"?>
<svg viewBox="0 0 200 200" xmlns="http://www.w3.org/2000/svg">
  <path fill="#F2F4F8" d="M43.7,-73.3C55.4,-68.9,62.7,-54.7,69,-40.8C75.4,-27,80.7,-13.5,82.3,1C84,15.4,82.1,30.9,73.8,41.3C65.5,51.7,50.8,57.1,37.4,65.6C24,74.2,12,86,0.6,84.9C-10.8,83.9,-21.6,70,-34.7,61.2C-47.8,52.5,-63.3,49,-69.3,39.7C-75.4,30.3,-71.9,15.2,-72.1,-0.1C-72.2,-15.3,-76,-30.7,-71.4,-42.6C-66.9,-54.4,-54,-62.8,-40.7,-66.3C-27.4,-69.7,-13.7,-68.2,1.2,-70.3C16,-72.3,32,-77.7,43.7,-73.3Z" transform="translate(100 100)" />
</svg>
