<?xml version="1.0" standalone="no"?>
<svg viewBox="0 0 200 200" xmlns="http://www.w3.org/2000/svg">
  <path fill="#A5C1D8" d="M46.8,-80.3C60.7,-72.9,72.2,-60.6,79.2,-46.4C86.2,-32.2,88.8,-16.1,89,0.1C89.3,16.4,87.1,32.7,79.8,46.4C72.5,60.2,60,71.2,45.8,78C31.7,84.8,15.8,87.3,0.3,86.8C-15.2,86.3,-30.5,82.7,-44.8,76C-59,69.3,-72.4,59.4,-79.6,46.2C-86.8,33,-87.9,16.5,-88,0C-88,-16.5,-87,-33.1,-80.1,-46.8C-73.2,-60.6,-60.4,-71.5,-46,-78.6C-31.7,-85.7,-15.9,-89,0.3,-89.5C16.4,-90,32.8,-87.6,46.8,-80.3Z" transform="translate(100 100)" />
</svg>
