<svg xmlns="http://www.w3.org/2000/svg" xmlns:xlink="http://www.w3.org/1999/xlink" width="500" zoomAndPan="magnify" viewBox="0 0 375 374.999991" height="500" preserveAspectRatio="xMidYMid meet" version="1.0"><defs><g/><clipPath id="55aaf77d39"><path d="M 94.679688 41.703125 L 280.679688 41.703125 L 280.679688 169.203125 L 94.679688 169.203125 Z M 94.679688 41.703125 " clip-rule="nonzero"/></clipPath><clipPath id="d027c89b61"><path d="M 135.804688 83.625 L 239.304688 83.625 L 239.304688 209.625 L 135.804688 209.625 Z M 135.804688 83.625 " clip-rule="nonzero"/></clipPath><clipPath id="82e9c62227"><path d="M 157.214844 222 L 178 222 L 178 253 L 157.214844 253 Z M 157.214844 222 " clip-rule="nonzero"/></clipPath><clipPath id="04fb2fd6e4"><path d="M 157.214844 221 L 179 221 L 179 254 L 157.214844 254 Z M 157.214844 221 " clip-rule="nonzero"/></clipPath><clipPath id="d99f120732"><path d="M 197 222 L 217.964844 222 L 217.964844 253 L 197 253 Z M 197 222 " clip-rule="nonzero"/></clipPath><clipPath id="f1883279da"><path d="M 196 221 L 217.964844 221 L 217.964844 254 L 196 254 Z M 196 221 " clip-rule="nonzero"/></clipPath><clipPath id="941f8a371a"><path d="M 177 213.898438 L 198 213.898438 L 198 261.148438 L 177 261.148438 Z M 177 213.898438 " clip-rule="nonzero"/></clipPath></defs><rect x="-37.5" width="450" fill="#ffffff" y="-37.499999" height="449.999989" fill-opacity="1"/><rect x="-37.5" width="450" fill="#ffffff" y="-37.499999" height="449.999989" fill-opacity="1"/><rect x="-37.5" width="450" fill="#efedd6" y="-37.499999" height="449.999989" fill-opacity="1"/><g clip-path="url(#55aaf77d39)"><path fill="#2a446b" d="M 280.65625 123.097656 L 280.65625 147.101562 C 280.65625 149.84375 278.449219 152.066406 275.722656 152.078125 C 275.707031 152.078125 275.691406 152.078125 275.679688 152.082031 L 259.507812 153.214844 C 259.160156 153.242188 258.867188 153.484375 258.777344 153.824219 C 257.429688 159 255.542969 163.949219 253.167969 168.617188 C 253.167969 168.621094 253.167969 168.621094 253.164062 168.625 C 252.933594 169.070312 252.359375 169.199219 251.964844 168.894531 L 237.101562 157.527344 C 236.804688 157.300781 236.695312 156.898438 236.847656 156.554688 C 237.6875 154.617188 238.417969 152.617188 239.027344 150.566406 C 239.8125 147.941406 240.398438 145.230469 240.777344 142.453125 C 241.003906 140.789062 241.152344 139.105469 241.226562 137.394531 C 241.257812 136.636719 241.273438 135.871094 241.273438 135.097656 C 241.273438 133.625 241.214844 132.160156 241.097656 130.714844 C 239.832031 114.949219 231.808594 101.105469 219.9375 92.105469 C 210.960938 85.300781 199.789062 81.265625 187.679688 81.265625 C 158.074219 81.265625 134.082031 105.367188 134.082031 135.097656 C 134.082031 142.726562 135.660156 149.984375 138.507812 156.558594 C 138.65625 156.902344 138.550781 157.300781 138.253906 157.527344 L 136.859375 158.59375 L 123.398438 168.890625 C 123 169.195312 122.417969 169.0625 122.1875 168.617188 C 122.160156 168.5625 122.132812 168.507812 122.101562 168.453125 C 122.066406 168.378906 122.027344 168.308594 121.992188 168.234375 C 120.820312 165.894531 119.765625 163.484375 118.84375 161.007812 C 117.972656 158.667969 117.214844 156.273438 116.578125 153.824219 C 116.488281 153.484375 116.195312 153.242188 115.847656 153.214844 L 99.679688 152.082031 C 99.664062 152.078125 99.648438 152.078125 99.632812 152.078125 C 96.910156 152.066406 94.699219 149.84375 94.699219 147.101562 L 94.699219 123.097656 C 94.699219 120.355469 96.910156 118.132812 99.632812 118.121094 C 99.648438 118.121094 99.664062 118.121094 99.679688 118.121094 L 115.847656 116.984375 C 116.195312 116.960938 116.488281 116.714844 116.578125 116.375 C 118.289062 109.796875 120.882812 103.574219 124.226562 97.847656 C 124.402344 97.542969 124.367188 97.160156 124.136719 96.894531 L 113.496094 84.605469 C 113.488281 84.59375 113.480469 84.582031 113.46875 84.574219 C 111.546875 82.628906 111.554688 79.488281 113.484375 77.550781 L 123.78125 67.207031 L 130.382812 60.578125 C 132.3125 58.636719 135.4375 58.632812 137.375 60.5625 C 137.382812 60.570312 137.394531 60.582031 137.40625 60.589844 L 149.644531 71.277344 C 149.90625 71.507812 150.289062 71.539062 150.589844 71.363281 C 156.292969 68.007812 162.484375 65.402344 169.035156 63.683594 C 169.375 63.59375 169.621094 63.300781 169.644531 62.949219 L 170.773438 46.707031 C 170.773438 46.695312 170.773438 46.679688 170.773438 46.664062 C 170.785156 43.925781 173 41.707031 175.730469 41.707031 L 199.628906 41.707031 C 202.355469 41.707031 204.570312 43.925781 204.582031 46.664062 C 204.582031 46.679688 204.582031 46.695312 204.585938 46.707031 L 205.714844 62.949219 C 205.738281 63.300781 205.984375 63.59375 206.320312 63.683594 C 212.871094 65.402344 219.0625 68.007812 224.769531 71.363281 C 225.070312 71.539062 225.449219 71.507812 225.710938 71.277344 L 227.777344 69.476562 L 237.949219 60.589844 C 237.960938 60.582031 237.972656 60.570312 237.980469 60.5625 C 239.917969 58.632812 243.046875 58.636719 244.972656 60.578125 L 251.574219 67.207031 L 261.871094 77.550781 C 263.800781 79.488281 263.808594 82.628906 261.886719 84.574219 C 261.875 84.582031 261.867188 84.59375 261.859375 84.605469 L 251.21875 96.894531 C 250.988281 97.160156 250.957031 97.542969 251.132812 97.847656 C 254.019531 102.796875 256.347656 108.109375 258.03125 113.707031 C 258.296875 114.589844 258.546875 115.480469 258.777344 116.375 C 258.867188 116.714844 259.160156 116.960938 259.507812 116.984375 L 261.90625 117.152344 L 263.90625 117.292969 L 269.898438 117.714844 L 275.679688 118.121094 C 275.691406 118.121094 275.707031 118.121094 275.722656 118.121094 C 278.449219 118.132812 280.65625 120.355469 280.65625 123.097656 " fill-opacity="1" fill-rule="nonzero"/></g><g clip-path="url(#d027c89b61)"><path fill="#f7b357" d="M 167.960938 175.25 L 205.917969 175.25 C 209.117188 175.25 211.714844 177.84375 211.714844 181.039062 C 211.714844 184.164062 209.117188 186.757812 205.917969 186.757812 L 167.960938 186.757812 C 164.832031 186.757812 162.238281 184.164062 162.238281 181.039062 C 162.238281 177.816406 164.832031 175.25 167.960938 175.25 Z M 156.535156 166.414062 C 158.050781 167.921875 158.050781 170.339844 156.535156 171.851562 C 155.023438 173.363281 152.527344 173.363281 150.988281 171.851562 C 146.171875 167.042969 142.339844 161.328125 139.742188 155.082031 C 137.242188 148.863281 135.804688 142.167969 135.804688 135.394531 C 135.804688 121.121094 141.605469 108.203125 150.988281 98.839844 C 160.371094 89.472656 173.308594 83.683594 187.605469 83.683594 C 201.804688 83.683594 214.742188 89.472656 224.125 98.839844 C 233.507812 108.203125 239.304688 121.121094 239.304688 135.394531 C 239.304688 142.167969 237.96875 148.863281 235.371094 155.109375 C 232.773438 161.351562 228.941406 167.066406 224.125 171.875 C 222.613281 173.386719 220.191406 173.386719 218.675781 171.875 C 217.0625 170.367188 217.0625 167.949219 218.675781 166.4375 C 222.789062 162.257812 225.992188 157.425781 228.132812 152.164062 C 230.378906 146.902344 231.539062 141.1875 231.539062 135.394531 C 231.539062 123.261719 226.621094 112.308594 218.675781 104.378906 C 210.632812 96.445312 199.660156 91.460938 187.605469 91.460938 C 175.453125 91.460938 164.480469 96.445312 156.535156 104.378906 C 148.59375 112.308594 143.597656 123.285156 143.597656 135.394531 C 143.597656 141.1875 144.757812 146.902344 147.003906 152.164062 C 149.121094 157.398438 152.324219 162.234375 156.535156 166.414062 Z M 187.605469 97.582031 C 208.414062 97.582031 225.386719 114.421875 225.386719 135.292969 C 225.386719 150.351562 216.535156 163.292969 203.875 169.359375 L 203.875 171.777344 L 200.46875 171.777344 L 200.46875 163.214844 C 201.980469 162.511719 203.066406 160.898438 203.066406 159.035156 C 203.066406 156.542969 201.023438 154.480469 198.5 154.480469 C 195.980469 154.480469 193.9375 156.519531 193.9375 159.035156 C 193.9375 160.898438 194.996094 162.511719 196.535156 163.214844 L 196.535156 171.777344 L 189.472656 171.777344 L 189.472656 157.25 L 199.484375 147.355469 C 199.839844 147.457031 200.292969 147.457031 200.644531 147.457031 C 203.140625 147.457031 205.210938 145.414062 205.210938 142.898438 C 205.210938 140.304688 203.167969 138.265625 200.644531 138.265625 C 198.125 138.265625 196.082031 140.304688 196.082031 142.898438 C 196.082031 143.601562 196.179688 144.234375 196.433594 144.863281 L 189.472656 151.8125 L 189.472656 139.148438 C 191.085938 138.339844 192.144531 136.832031 192.144531 134.96875 C 192.144531 132.476562 190.105469 130.410156 187.582031 130.410156 C 184.984375 130.410156 182.941406 132.449219 182.941406 134.96875 C 182.941406 136.832031 184 138.367188 185.613281 139.148438 L 185.613281 171.777344 L 178.554688 171.777344 L 178.554688 152.265625 C 180.066406 151.558594 181.152344 149.949219 181.152344 148.160156 C 181.152344 145.667969 179.109375 143.601562 176.585938 143.601562 C 174.0625 143.601562 172.019531 145.640625 172.019531 148.160156 C 172.019531 149.949219 173.082031 151.558594 174.617188 152.265625 L 174.617188 171.777344 L 171.214844 171.777344 L 171.214844 169.359375 C 158.578125 163.292969 149.726562 150.375 149.726562 135.292969 C 149.726562 114.449219 166.699219 97.582031 187.605469 97.582031 Z M 174.570312 190.480469 L 199.382812 190.480469 C 202.511719 190.480469 205.109375 193.074219 205.109375 196.195312 C 205.109375 199.394531 202.511719 201.988281 199.382812 201.988281 L 194.039062 201.988281 C 194.039062 202.164062 194.039062 200.476562 194.039062 202.515625 C 194.039062 204.554688 190.910156 209.566406 186.976562 209.566406 C 183.042969 209.566406 179.839844 204.582031 179.839844 202.515625 C 179.839844 200.476562 179.839844 202.164062 179.839844 201.988281 L 174.570312 201.988281 C 171.367188 201.988281 168.769531 199.394531 168.769531 196.195312 C 168.769531 193.074219 171.339844 190.480469 174.570312 190.480469 Z M 174.570312 190.480469 " fill-opacity="1" fill-rule="nonzero"/></g><g clip-path="url(#82e9c62227)"><path fill="#f7b357" d="M 176.378906 252.421875 C 176.042969 252.421875 175.714844 252.308594 175.449219 252.097656 L 158.460938 238.707031 C 158.09375 238.417969 157.886719 237.988281 157.886719 237.523438 C 157.886719 237.058594 158.09375 236.625 158.460938 236.335938 L 175.449219 222.945312 C 175.714844 222.734375 176.042969 222.621094 176.378906 222.621094 C 176.84375 222.621094 177.277344 222.832031 177.5625 223.199219 C 177.808594 223.511719 177.921875 223.910156 177.875 224.308594 C 177.828125 224.707031 177.625 225.066406 177.3125 225.3125 L 161.828125 237.523438 L 177.3125 249.726562 C 177.625 249.980469 177.828125 250.335938 177.875 250.734375 C 177.921875 251.132812 177.808594 251.527344 177.5625 251.84375 C 177.277344 252.210938 176.84375 252.421875 176.378906 252.421875 " fill-opacity="1" fill-rule="nonzero"/></g><g clip-path="url(#04fb2fd6e4)"><path fill="#2a446b" d="M 176.378906 221.980469 C 175.902344 221.980469 175.433594 222.140625 175.054688 222.441406 L 158.0625 235.832031 C 157.542969 236.246094 157.246094 236.859375 157.246094 237.523438 C 157.246094 238.183594 157.542969 238.800781 158.0625 239.210938 L 175.054688 252.601562 C 175.429688 252.898438 175.902344 253.0625 176.378906 253.0625 C 177.042969 253.0625 177.660156 252.761719 178.066406 252.242188 C 178.421875 251.792969 178.578125 251.230469 178.511719 250.660156 C 178.445312 250.089844 178.160156 249.578125 177.707031 249.222656 L 162.863281 237.523438 L 177.707031 225.820312 C 178.160156 225.460938 178.445312 224.953125 178.511719 224.382812 C 178.578125 223.8125 178.421875 223.25 178.066406 222.800781 C 177.660156 222.277344 177.042969 221.980469 176.378906 221.980469 Z M 176.378906 223.265625 C 176.636719 223.265625 176.890625 223.378906 177.058594 223.59375 C 177.355469 223.96875 177.289062 224.515625 176.914062 224.808594 L 160.789062 237.523438 L 176.914062 250.234375 C 177.289062 250.527344 177.355469 251.074219 177.058594 251.449219 C 176.890625 251.664062 176.636719 251.777344 176.378906 251.777344 C 176.191406 251.777344 176.007812 251.71875 175.847656 251.59375 L 158.855469 238.203125 C 158.648438 238.039062 158.527344 237.785156 158.527344 237.523438 C 158.527344 237.253906 158.648438 237.003906 158.855469 236.839844 L 175.847656 223.449219 C 176.003906 223.324219 176.191406 223.265625 176.378906 223.265625 " fill-opacity="1" fill-rule="nonzero"/></g><g clip-path="url(#d99f120732)"><path fill="#f7b357" d="M 198.796875 252.421875 C 198.332031 252.421875 197.902344 252.210938 197.613281 251.84375 C 197.101562 251.191406 197.214844 250.242188 197.867188 249.726562 L 213.351562 237.523438 L 197.867188 225.3125 C 197.214844 224.800781 197.101562 223.851562 197.613281 223.199219 C 197.902344 222.832031 198.332031 222.621094 198.796875 222.621094 C 199.132812 222.621094 199.464844 222.734375 199.726562 222.945312 L 216.71875 236.335938 C 217.082031 236.625 217.289062 237.058594 217.289062 237.523438 C 217.289062 237.988281 217.082031 238.417969 216.714844 238.707031 L 199.726562 252.097656 C 199.464844 252.308594 199.132812 252.421875 198.796875 252.421875 " fill-opacity="1" fill-rule="nonzero"/></g><g clip-path="url(#f1883279da)"><path fill="#2a446b" d="M 198.796875 221.980469 C 198.136719 221.980469 197.519531 222.277344 197.109375 222.800781 C 196.378906 223.730469 196.539062 225.085938 197.46875 225.820312 L 212.316406 237.523438 L 197.46875 249.222656 C 196.539062 249.957031 196.378906 251.3125 197.109375 252.242188 C 197.519531 252.761719 198.136719 253.0625 198.796875 253.0625 C 199.277344 253.0625 199.746094 252.898438 200.121094 252.601562 L 217.113281 239.210938 C 217.632812 238.800781 217.929688 238.183594 217.929688 237.523438 C 217.929688 236.859375 217.632812 236.246094 217.117188 235.832031 L 200.125 222.441406 C 199.75 222.140625 199.277344 221.980469 198.796875 221.980469 Z M 198.796875 223.265625 C 198.984375 223.265625 199.175781 223.324219 199.332031 223.449219 L 216.320312 236.839844 C 216.527344 237.003906 216.648438 237.253906 216.648438 237.523438 C 216.648438 237.785156 216.527344 238.039062 216.320312 238.203125 L 199.332031 251.59375 C 199.175781 251.71875 198.984375 251.777344 198.796875 251.777344 C 198.539062 251.777344 198.289062 251.664062 198.117188 251.449219 C 197.824219 251.074219 197.886719 250.527344 198.261719 250.234375 L 214.386719 237.523438 L 198.261719 224.808594 C 197.886719 224.515625 197.824219 223.96875 198.117188 223.59375 C 198.289062 223.378906 198.542969 223.265625 198.796875 223.265625 " fill-opacity="1" fill-rule="nonzero"/></g><path fill="#f7b357" d="M 179.144531 260.503906 C 178.957031 260.503906 178.777344 260.464844 178.601562 260.398438 C 178.226562 260.253906 177.929688 259.96875 177.769531 259.601562 C 177.605469 259.234375 177.597656 258.824219 177.742188 258.449219 L 194.335938 215.503906 C 194.558594 214.929688 195.121094 214.542969 195.738281 214.542969 C 195.925781 214.542969 196.109375 214.578125 196.28125 214.644531 C 197.054688 214.945312 197.441406 215.820312 197.140625 216.59375 L 180.550781 259.539062 C 180.328125 260.113281 179.761719 260.503906 179.144531 260.503906 " fill-opacity="1" fill-rule="nonzero"/><g clip-path="url(#941f8a371a)"><path fill="#2a446b" d="M 195.738281 213.898438 C 194.859375 213.898438 194.054688 214.453125 193.738281 215.273438 L 177.144531 258.214844 C 176.9375 258.753906 176.953125 259.335938 177.183594 259.863281 C 177.414062 260.386719 177.835938 260.792969 178.371094 260.996094 C 178.621094 261.09375 178.878906 261.144531 179.144531 261.144531 C 180.023438 261.144531 180.828125 260.59375 181.148438 259.769531 L 197.738281 216.828125 C 198.167969 215.71875 197.617188 214.472656 196.511719 214.046875 C 196.265625 213.949219 196.003906 213.898438 195.738281 213.898438 Z M 195.738281 215.183594 C 195.84375 215.183594 195.945312 215.203125 196.050781 215.242188 C 196.496094 215.414062 196.714844 215.914062 196.542969 216.363281 L 179.949219 259.304688 C 179.820312 259.648438 179.492188 259.859375 179.144531 259.859375 C 179.039062 259.859375 178.9375 259.84375 178.832031 259.800781 C 178.386719 259.628906 178.167969 259.125 178.339844 258.679688 L 194.933594 215.738281 C 195.066406 215.394531 195.390625 215.183594 195.738281 215.183594 " fill-opacity="1" fill-rule="nonzero"/></g><g fill="#2a446b" fill-opacity="1"><g transform="translate(65.823031, 296.97288)"><g><path d="M 2.3125 0 L 2.3125 -26.984375 L 9.734375 -26.984375 L 9.734375 -15.953125 L 18.703125 -26.984375 L 26.296875 -26.984375 L 16.484375 -14.890625 L 26.984375 0 L 19.234375 0 L 12.125 -10.75 L 9.734375 -8.015625 L 9.734375 0 Z M 2.3125 0 "/></g></g></g><g fill="#2a446b" fill-opacity="1"><g transform="translate(91.999683, 296.97288)"><g><path d="M 9.734375 -13.265625 L 9.734375 0 L 2.3125 0 L 2.3125 -26.984375 L 8.09375 -26.984375 L 18.921875 -13.265625 L 18.921875 -26.984375 L 26.328125 -26.984375 L 26.328125 0 L 20.4375 0 Z M 9.734375 -13.265625 "/></g></g></g><g fill="#2a446b" fill-opacity="1"><g transform="translate(120.645834, 296.97288)"><g><path d="M 21.546875 -6.453125 L 21.546875 0 L 2.3125 0 L 2.3125 -26.984375 L 21.203125 -26.984375 L 21.203125 -20.515625 L 9.734375 -20.515625 L 9.734375 -16.71875 L 19.53125 -16.71875 L 19.53125 -10.71875 L 9.734375 -10.71875 L 9.734375 -6.453125 Z M 21.546875 -6.453125 "/></g></g></g><g fill="#2a446b" fill-opacity="1"><g transform="translate(143.327198, 296.97288)"><g><path d="M 21.546875 -6.453125 L 21.546875 0 L 2.3125 0 L 2.3125 -26.984375 L 21.203125 -26.984375 L 21.203125 -20.515625 L 9.734375 -20.515625 L 9.734375 -16.71875 L 19.53125 -16.71875 L 19.53125 -10.71875 L 9.734375 -10.71875 L 9.734375 -6.453125 Z M 21.546875 -6.453125 "/></g></g></g><g fill="#2a446b" fill-opacity="1"><g transform="translate(166.008563, 296.97288)"><g><path d="M 18.65625 -18.15625 C 17.894531 -18.613281 17.109375 -19.019531 16.296875 -19.375 C 15.617188 -19.6875 14.851562 -19.972656 14 -20.234375 C 13.15625 -20.503906 12.328125 -20.640625 11.515625 -20.640625 C 10.859375 -20.640625 10.332031 -20.535156 9.9375 -20.328125 C 9.539062 -20.128906 9.34375 -19.785156 9.34375 -19.296875 C 9.34375 -18.941406 9.457031 -18.648438 9.6875 -18.421875 C 9.914062 -18.203125 10.242188 -17.992188 10.671875 -17.796875 C 11.109375 -17.609375 11.632812 -17.425781 12.25 -17.25 C 12.875 -17.070312 13.578125 -16.859375 14.359375 -16.609375 C 15.597656 -16.222656 16.71875 -15.800781 17.71875 -15.34375 C 18.726562 -14.894531 19.585938 -14.359375 20.296875 -13.734375 C 21.003906 -13.117188 21.546875 -12.363281 21.921875 -11.46875 C 22.304688 -10.582031 22.5 -9.507812 22.5 -8.25 C 22.5 -6.625 22.195312 -5.257812 21.59375 -4.15625 C 21 -3.0625 20.210938 -2.179688 19.234375 -1.515625 C 18.265625 -0.859375 17.164062 -0.382812 15.9375 -0.09375 C 14.707031 0.195312 13.472656 0.34375 12.234375 0.34375 C 11.242188 0.34375 10.226562 0.265625 9.1875 0.109375 C 8.15625 -0.0351562 7.125 -0.25 6.09375 -0.53125 C 5.070312 -0.8125 4.082031 -1.140625 3.125 -1.515625 C 2.175781 -1.898438 1.300781 -2.332031 0.5 -2.8125 L 3.6875 -9.3125 C 4.570312 -8.75 5.492188 -8.253906 6.453125 -7.828125 C 7.265625 -7.453125 8.179688 -7.109375 9.203125 -6.796875 C 10.234375 -6.492188 11.28125 -6.34375 12.34375 -6.34375 C 13.15625 -6.34375 13.71875 -6.445312 14.03125 -6.65625 C 14.351562 -6.875 14.515625 -7.164062 14.515625 -7.53125 C 14.515625 -7.90625 14.351562 -8.222656 14.03125 -8.484375 C 13.71875 -8.753906 13.28125 -8.988281 12.71875 -9.1875 C 12.164062 -9.394531 11.53125 -9.597656 10.8125 -9.796875 C 10.09375 -10.003906 9.328125 -10.25 8.515625 -10.53125 C 7.316406 -10.9375 6.285156 -11.375 5.421875 -11.84375 C 4.566406 -12.3125 3.859375 -12.84375 3.296875 -13.4375 C 2.742188 -14.03125 2.332031 -14.707031 2.0625 -15.46875 C 1.800781 -16.226562 1.671875 -17.101562 1.671875 -18.09375 C 1.671875 -19.582031 1.941406 -20.894531 2.484375 -22.03125 C 3.035156 -23.175781 3.78125 -24.128906 4.71875 -24.890625 C 5.65625 -25.648438 6.722656 -26.222656 7.921875 -26.609375 C 9.128906 -27.003906 10.398438 -27.203125 11.734375 -27.203125 C 12.722656 -27.203125 13.6875 -27.109375 14.625 -26.921875 C 15.5625 -26.734375 16.46875 -26.492188 17.34375 -26.203125 C 18.21875 -25.910156 19.035156 -25.59375 19.796875 -25.25 C 20.554688 -24.90625 21.238281 -24.582031 21.84375 -24.28125 Z M 18.65625 -18.15625 "/></g></g></g><g fill="#2a446b" fill-opacity="1"><g transform="translate(189.449769, 296.97288)"><g><path d="M 14.0625 -6.34375 C 14.925781 -6.34375 15.660156 -6.53125 16.265625 -6.90625 C 16.867188 -7.289062 17.359375 -7.789062 17.734375 -8.40625 C 18.117188 -9.03125 18.398438 -9.75 18.578125 -10.5625 C 18.753906 -11.375 18.84375 -12.222656 18.84375 -13.109375 L 18.84375 -26.984375 L 26.265625 -26.984375 L 26.265625 -13.109375 C 26.265625 -11.234375 26.019531 -9.476562 25.53125 -7.84375 C 25.050781 -6.207031 24.304688 -4.796875 23.296875 -3.609375 C 22.285156 -2.421875 21.007812 -1.484375 19.46875 -0.796875 C 17.9375 -0.109375 16.132812 0.234375 14.0625 0.234375 C 11.90625 0.234375 10.0625 -0.125 8.53125 -0.84375 C 7 -1.570312 5.738281 -2.546875 4.75 -3.765625 C 3.757812 -4.984375 3.035156 -6.394531 2.578125 -8 C 2.128906 -9.601562 1.90625 -11.304688 1.90625 -13.109375 L 1.90625 -26.984375 L 9.3125 -26.984375 L 9.3125 -13.109375 C 9.3125 -12.222656 9.398438 -11.367188 9.578125 -10.546875 C 9.753906 -9.722656 10.03125 -9 10.40625 -8.375 C 10.789062 -7.757812 11.28125 -7.265625 11.875 -6.890625 C 12.46875 -6.523438 13.195312 -6.34375 14.0625 -6.34375 Z M 14.0625 -6.34375 "/></g></g></g><g fill="#2a446b" fill-opacity="1"><g transform="translate(217.602015, 296.97288)"><g><path d="M 9.734375 -13.265625 L 9.734375 0 L 2.3125 0 L 2.3125 -26.984375 L 8.09375 -26.984375 L 18.921875 -13.265625 L 18.921875 -26.984375 L 26.328125 -26.984375 L 26.328125 0 L 20.4375 0 Z M 9.734375 -13.265625 "/></g></g></g><g fill="#2a446b" fill-opacity="1"><g transform="translate(246.248166, 296.97288)"><g><path d="M 1.90625 -7.265625 L 1.90625 -13.71875 L 13.796875 -13.71875 L 13.796875 -7.265625 Z M 1.90625 -7.265625 "/></g></g></g><g fill="#2a446b" fill-opacity="1"><g transform="translate(261.938953, 296.97288)"><g><path d="M 1.75 -7.296875 C 1.820312 -7.242188 1.984375 -7.15625 2.234375 -7.03125 C 2.492188 -6.90625 2.8125 -6.773438 3.1875 -6.640625 C 3.570312 -6.515625 4.007812 -6.398438 4.5 -6.296875 C 5 -6.203125 5.515625 -6.15625 6.046875 -6.15625 C 6.828125 -6.15625 7.457031 -6.28125 7.9375 -6.53125 C 8.414062 -6.789062 8.78125 -7.203125 9.03125 -7.765625 C 9.289062 -8.335938 9.457031 -9.070312 9.53125 -9.96875 C 9.613281 -10.875 9.65625 -11.972656 9.65625 -13.265625 L 9.65625 -26.984375 L 17.0625 -26.984375 L 17.0625 -13.265625 C 17.0625 -11.210938 16.945312 -9.34375 16.71875 -7.65625 C 16.488281 -5.96875 15.992188 -4.53125 15.234375 -3.34375 C 14.472656 -2.15625 13.363281 -1.226562 11.90625 -0.5625 C 10.457031 0.09375 8.503906 0.421875 6.046875 0.421875 C 3.765625 0.421875 1.8125 -0.132812 0.1875 -1.25 Z M 1.75 -7.296875 "/></g></g></g><g fill="#2a446b" fill-opacity="1"><g transform="translate(281.011057, 296.97288)"><g><path d="M 14.0625 -6.34375 C 14.925781 -6.34375 15.660156 -6.53125 16.265625 -6.90625 C 16.867188 -7.289062 17.359375 -7.789062 17.734375 -8.40625 C 18.117188 -9.03125 18.398438 -9.75 18.578125 -10.5625 C 18.753906 -11.375 18.84375 -12.222656 18.84375 -13.109375 L 18.84375 -26.984375 L 26.265625 -26.984375 L 26.265625 -13.109375 C 26.265625 -11.234375 26.019531 -9.476562 25.53125 -7.84375 C 25.050781 -6.207031 24.304688 -4.796875 23.296875 -3.609375 C 22.285156 -2.421875 21.007812 -1.484375 19.46875 -0.796875 C 17.9375 -0.109375 16.132812 0.234375 14.0625 0.234375 C 11.90625 0.234375 10.0625 -0.125 8.53125 -0.84375 C 7 -1.570312 5.738281 -2.546875 4.75 -3.765625 C 3.757812 -4.984375 3.035156 -6.394531 2.578125 -8 C 2.128906 -9.601562 1.90625 -11.304688 1.90625 -13.109375 L 1.90625 -26.984375 L 9.3125 -26.984375 L 9.3125 -13.109375 C 9.3125 -12.222656 9.398438 -11.367188 9.578125 -10.546875 C 9.753906 -9.722656 10.03125 -9 10.40625 -8.375 C 10.789062 -7.757812 11.28125 -7.265625 11.875 -6.890625 C 12.46875 -6.523438 13.195312 -6.34375 14.0625 -6.34375 Z M 14.0625 -6.34375 "/></g></g></g><g fill="#b76e02" fill-opacity="1"><g transform="translate(156.951469, 314.762821)"><g><path d="M 2.109375 -7.046875 L 2.109375 0 L 0.703125 0 L 0.703125 -7.046875 Z M 2.109375 -7.046875 "/></g></g></g><g fill="#b76e02" fill-opacity="1"><g transform="translate(167.836795, 314.762821)"><g><path d="M 3.15625 -7.046875 C 3.894531 -7.046875 4.546875 -6.898438 5.109375 -6.609375 C 5.671875 -6.316406 6.101562 -5.90625 6.40625 -5.375 C 6.71875 -4.84375 6.875 -4.222656 6.875 -3.515625 C 6.875 -2.804688 6.71875 -2.1875 6.40625 -1.65625 C 6.101562 -1.132812 5.671875 -0.726562 5.109375 -0.4375 C 4.546875 -0.144531 3.894531 0 3.15625 0 L 0.703125 0 L 0.703125 -7.046875 Z M 3.109375 -1.203125 C 3.847656 -1.203125 4.421875 -1.398438 4.828125 -1.796875 C 5.234375 -2.203125 5.4375 -2.773438 5.4375 -3.515625 C 5.4375 -4.242188 5.234375 -4.816406 4.828125 -5.234375 C 4.421875 -5.648438 3.847656 -5.859375 3.109375 -5.859375 L 2.109375 -5.859375 L 2.109375 -1.203125 Z M 3.109375 -1.203125 "/></g></g></g><g fill="#b76e02" fill-opacity="1"><g transform="translate(183.151533, 314.762821)"><g><path d="M 2.109375 -5.90625 L 2.109375 -4.140625 L 4.484375 -4.140625 L 4.484375 -3.015625 L 2.109375 -3.015625 L 2.109375 -1.15625 L 4.78125 -1.15625 L 4.78125 0 L 0.703125 0 L 0.703125 -7.0625 L 4.78125 -7.0625 L 4.78125 -5.90625 Z M 2.109375 -5.90625 "/></g></g></g><g fill="#b76e02" fill-opacity="1"><g transform="translate(196.59966, 314.762821)"><g><path d="M 5.015625 -1.34375 L 2.203125 -1.34375 L 1.75 0 L 0.265625 0 L 2.796875 -7.0625 L 4.4375 -7.0625 L 6.96875 0 L 5.484375 0 Z M 4.640625 -2.46875 L 3.609375 -5.421875 L 2.59375 -2.46875 Z M 4.640625 -2.46875 "/></g></g></g><g fill="#b76e02" fill-opacity="1"><g transform="translate(211.904306, 314.762821)"><g><path d="M 3.125 0.078125 C 2.632812 0.078125 2.191406 -0.00390625 1.796875 -0.171875 C 1.410156 -0.347656 1.101562 -0.59375 0.875 -0.90625 C 0.644531 -1.226562 0.523438 -1.601562 0.515625 -2.03125 L 2.03125 -2.03125 C 2.050781 -1.738281 2.148438 -1.507812 2.328125 -1.34375 C 2.515625 -1.175781 2.769531 -1.09375 3.09375 -1.09375 C 3.425781 -1.09375 3.6875 -1.171875 3.875 -1.328125 C 4.0625 -1.484375 4.15625 -1.691406 4.15625 -1.953125 C 4.15625 -2.160156 4.09375 -2.332031 3.96875 -2.46875 C 3.84375 -2.601562 3.679688 -2.707031 3.484375 -2.78125 C 3.296875 -2.851562 3.03125 -2.9375 2.6875 -3.03125 C 2.238281 -3.164062 1.867188 -3.300781 1.578125 -3.4375 C 1.296875 -3.570312 1.050781 -3.769531 0.84375 -4.03125 C 0.632812 -4.300781 0.53125 -4.65625 0.53125 -5.09375 C 0.53125 -5.507812 0.632812 -5.875 0.84375 -6.1875 C 1.050781 -6.5 1.34375 -6.734375 1.71875 -6.890625 C 2.101562 -7.054688 2.535156 -7.140625 3.015625 -7.140625 C 3.742188 -7.140625 4.332031 -6.960938 4.78125 -6.609375 C 5.238281 -6.265625 5.492188 -5.773438 5.546875 -5.140625 L 3.984375 -5.140625 C 3.972656 -5.378906 3.867188 -5.578125 3.671875 -5.734375 C 3.484375 -5.890625 3.234375 -5.96875 2.921875 -5.96875 C 2.640625 -5.96875 2.414062 -5.894531 2.25 -5.75 C 2.09375 -5.613281 2.015625 -5.410156 2.015625 -5.140625 C 2.015625 -4.953125 2.070312 -4.796875 2.1875 -4.671875 C 2.3125 -4.546875 2.46875 -4.445312 2.65625 -4.375 C 2.84375 -4.300781 3.101562 -4.210938 3.4375 -4.109375 C 3.894531 -3.972656 4.269531 -3.835938 4.5625 -3.703125 C 4.851562 -3.566406 5.101562 -3.363281 5.3125 -3.09375 C 5.519531 -2.820312 5.625 -2.46875 5.625 -2.03125 C 5.625 -1.65625 5.523438 -1.304688 5.328125 -0.984375 C 5.128906 -0.660156 4.84375 -0.398438 4.46875 -0.203125 C 4.09375 -0.015625 3.644531 0.078125 3.125 0.078125 Z M 3.125 0.078125 "/></g></g></g></svg>